<?xml version="1.0" standalone="no"?>
<!DOCTYPE svg PUBLIC "-//W3C//DTD SVG 1.1//EN" "http://www.w3.org/Graphics/SVG/1.1/DTD/svg11.dtd" >
<svg xmlns="http://www.w3.org/2000/svg" xmlns:xlink="http://www.w3.org/1999/xlink" version="1.1">
<metadata>
Created by FontForge 20160405 at Tue Dec 12 01:01:43 2017
 By www-data
Tiempo Italic is a product of MicroLogic Software, Inc.
</metadata>
<defs>
<font id="Tiempo-Italic" horiz-adv-x="1020" >
  <font-face 
    font-family="Tiempo"
    font-weight="400"
    font-style="italic"
    font-stretch="normal"
    units-per-em="2048"
    panose-1="2 2 6 0 0 0 0 9 0 0"
    ascent="1638"
    descent="-410"
    x-height="947"
    cap-height="1406"
    bbox="-337 -483 2626.02 1955"
    underline-thickness="150"
    underline-position="-527"
    slope="-12"
    unicode-range="U+0020-25CA"
  />
<missing-glyph horiz-adv-x="1372" 
d="M1200 1193v-1032h-1032v1032h1032zM258 1107v-860h852v860h-852z" />
    <glyph glyph-name=".notdef" horiz-adv-x="1372" 
d="M1200 1193v-1032h-1032v1032h1032zM258 1107v-860h852v860h-852z" />
    <glyph glyph-name="glyph1" horiz-adv-x="0" 
 />
    <glyph glyph-name="nonmarkingreturn" horiz-adv-x="682" 
 />
    <glyph glyph-name="space" unicode=" " horiz-adv-x="507" 
 />
    <glyph glyph-name="space" unicode="&#xa0;" horiz-adv-x="507" 
 />
    <glyph glyph-name="exclam" unicode="!" horiz-adv-x="606" 
d="M594 1316q-2 -41 -40 -128t-98.5 -213t-128 -285t-130.5 -345l-29 8q20 95 50 236t58.5 288.5t50 258t29.5 143.5q11 61 39.5 107.5t100.5 48.5q49 0 73.5 -30t24.5 -89zM12 79q0 50 32 85.5t91 37.5q58 -3 84.5 -42t26.5 -81t-29.5 -73.5t-85.5 -34.5q-56 2 -87 30
t-32 78z" />
    <glyph glyph-name="quotedbl" unicode="&#x22;" horiz-adv-x="684" 
d="M176 1451q46 -1 66 -29t20 -77l-74 -488h-28l-74 488q0 49 22 77t68 29zM418 1345q-1 49 17 77t69 29q51 -1 71 -29t19 -77l-74 -488h-28z" />
    <glyph glyph-name="numbersign" unicode="#" horiz-adv-x="1569" 
d="M598 579h283l98 278h-283zM213 857l49 135h332l160 455h151l-160 -455h283l160 455h151l-159 -455h295l-45 -135h-300l-98 -278h320l-45 -136h-324l-160 -447h-151l159 447h-278l-160 -447h-155l159 447h-311l45 136h315l99 278h-332z" />
    <glyph glyph-name="dollar" unicode="$" 
d="M688 357q-1 74 -46.5 142.5t-117.5 132.5l-180 -610q172 2 258 92.5t86 242.5zM963 1299l-54 -258h-32q5 92 -25 175t-123 120l-147 -508q114 -78 194 -176t84 -229q-2 -224 -139.5 -337.5t-388.5 -114.5l-53 -176h-74l53 189q-80 10 -151 35t-124 68l58 291h29
q-2 -149 51.5 -230.5t152.5 -113.5l185 643q-96 75 -171 167t-79 222q3 148 108 246t277 102l78 -4l28 102h78l-33 -114q61 -12 113.5 -35.5t104.5 -63.5zM516 882l139 471q-12 1 -29 4.5t-32 3.5q-111 -3 -168 -73.5t-57 -168.5q2 -68 44.5 -128t102.5 -109z" />
    <glyph glyph-name="percent" unicode="%" horiz-adv-x="1917" 
d="M864 1267v-90q-3 -150 -124.5 -340.5t-329.5 -208.5q-138 4 -201 83.5t-62 182.5q10 201 159 368t321 177q73 0 113 -23.5t73 -53.5t85 -53.5t151 -25.5q116 2 221.5 56.5t163.5 136.5h90l-1024 -1537h-82l917 1385q-62 -38 -136 -63.5t-155 -26.5q-47 1 -96 11.5
t-84 21.5zM1319 -25q-137 2 -200 72.5t-62 191.5q6 173 145 347.5t338 188.5q120 -3 181 -69.5t61 -167.5q-3 -181 -128.5 -364.5t-334.5 -198.5zM1569 714q-136 -22 -253 -227t-124 -326q1 -60 37.5 -97t101.5 -38q148 11 265 169t124 326q1 77 -35.5 133.5t-115.5 59.5z
M655 1369q-144 -25 -255 -232t-117 -296q1 -71 37 -111t98 -41q172 15 279 179.5t110 295.5q0 24 -1.5 63t-10.5 68q-39 13 -79.5 42t-60.5 32z" />
    <glyph glyph-name="ampersand" unicode="&#x26;" horiz-adv-x="1470" 
d="M1053 632q1 54 -24.5 71t-94.5 15l12 37h430l-12 -37q-74 0 -120 -32t-86 -91t-95 -140t-145 -180q64 -90 135.5 -146t150.5 -58q35 1 76.5 19t67.5 38l20 -33q-48 -47 -125 -80t-162 -35q-102 3 -169.5 47t-120.5 113q-69 -55 -189 -105t-287 -55q-183 4 -268 94
t-85 234q13 215 188.5 346.5t365.5 186.5q-6 38 -9 75.5t-3 88.5q3 172 97 300t247 134q109 -2 157.5 -57.5t47.5 -135.5q-3 -127 -101.5 -216t-255.5 -161q25 -108 81 -281.5t108 -254.5q53 52 108.5 137t59.5 162zM684 923q91 39 164.5 119.5t77.5 211.5q0 51 -23.5 88
t-75.5 39q-79 -7 -119 -99.5t-40 -182.5q0 -39 2.5 -79t13.5 -97zM520 783q-155 -66 -259.5 -167t-108.5 -259q2 -123 78 -209t204 -90q87 3 179 45t145 91q-73 96 -140.5 274.5t-97.5 314.5z" />
    <glyph glyph-name="quotesingle" unicode="'" horiz-adv-x="352" 
d="M176 1451q46 -1 66 -29t20 -77l-74 -488h-28l-74 488q0 49 22 77t68 29z" />
    <glyph glyph-name="parenleft" unicode="(" horiz-adv-x="791" 
d="M324 108q-1 -152 26 -265.5t88 -248.5l-32 -28q-118 196 -181.5 393t-64.5 411q15 381 215 668.5t403 433.5l29 -29q-272 -265 -379.5 -620t-103.5 -715z" />
    <glyph glyph-name="parenright" unicode=")" horiz-adv-x="791" 
d="M410 927q1 155 -26.5 269t-88.5 247l33 29q117 -196 180.5 -395t64.5 -412q-15 -382 -214.5 -667.5t-400.5 -431.5l-25 28q283 296 383 655t94 678z" />
    <glyph glyph-name="asterisk" unicode="*" 
d="M393 1238q26 -29 59 -82.5t130 -109.5q-5 149 -37 185.5t-37 121.5q0 32 22 56.5t68 25.5q46 -1 68 -25.5t22 -56.5q-5 -85 -37 -121.5t-37 -185.5q97 56 128.5 108t60.5 84q15 13 38 24.5t48 12.5q35 0 58 -26.5t24 -75.5q-1 -20 -22 -42t-44 -32q-69 -20 -114.5 -16
t-155.5 -62q109 -57 153.5 -54t124.5 -20q26 -10 43.5 -36.5t18.5 -61.5q-1 -27 -27 -51.5t-67 -26.5q-24 0 -41.5 10t-32.5 23q-36 41 -62.5 85.5t-130.5 110.5q5 -149 37 -183.5t37 -119.5q1 -21 -18.5 -52t-71.5 -34q-52 3 -71.5 34t-18.5 52q5 85 37 119.5t37 183.5
q-104 -66 -130.5 -110.5t-62.5 -85.5q-15 -13 -32.5 -23t-41.5 -10q-41 2 -67 26.5t-27 51.5q1 35 18.5 61.5t43.5 36.5q80 23 125 20t153 54q-109 66 -155 62t-115 16q-23 10 -44 32t-22 42q1 49 24 75.5t58 26.5q30 0 48 -9t38 -28z" />
    <glyph glyph-name="plus" unicode="+" horiz-adv-x="1700" 
d="M782 673v536h136v-536h528v-135h-528v-538h-136v538h-528v135h528z" />
    <glyph glyph-name="comma" unicode="," horiz-adv-x="508" 
d="M-42 108q1 47 29.5 81.5t82.5 36.5q62 -3 94.5 -51t32.5 -108q-3 -119 -93.5 -229.5t-235.5 -181.5l-12 41q84 44 149 116.5t69 133.5q-7 46 -57.5 65t-58.5 96z" />
    <glyph glyph-name="hyphen" unicode="-" horiz-adv-x="672" 
d="M70 550h454l-37 -143h-462z" />
    <glyph glyph-name="hyphen" unicode="&#xad;" horiz-adv-x="672" 
d="M70 550h454l-37 -143h-462z" />
    <glyph glyph-name="period" unicode="." horiz-adv-x="508" 
d="M-22 99q2 53 33.5 85.5t86.5 33.5q56 -1 85.5 -34.5t29.5 -84.5q-1 -50 -31.5 -79.5t-83.5 -31.5q-53 1 -85.5 30t-34.5 81z" />
    <glyph glyph-name="slash" unicode="/" horiz-adv-x="561" 
d="M582 1435l-525 -1623h-79l518 1623h86z" />
    <glyph glyph-name="zero" unicode="0" 
d="M668 1426q180 -10 247.5 -158t63.5 -317q-7 -311 -188.5 -632t-446.5 -348q-178 11 -243 158.5t-64 313.5q7 301 186.5 628.5t444.5 354.5zM815 1127q2 88 -29 164.5t-118 81.5q-193 -39 -327 -434.5t-140 -683.5q0 -81 33 -154.5t106 -78.5q210 43 340.5 449.5
t134.5 655.5z" />
    <glyph glyph-name="one" unicode="1" 
d="M307 222l266 922q19 65 -3.5 100t-86.5 35q-38 0 -78.5 -4.5t-72.5 -7.5v15v22q106 22 188 43.5t139.5 40t90 28.5t41.5 10q23 1 24.5 -9t-8.5 -40l-332 -1142q-38 -107 -7 -154.5t212 -46.5l-8 -34h-652l9 34q107 -4 174.5 31t103.5 157z" />
    <glyph glyph-name="two" unicode="2" 
d="M508 1291q-98 -1 -175 -51.5t-132 -140.5l-33 33q70 123 169.5 207t240.5 87q179 -4 273 -108t95 -256q0 -84 -42 -166t-132 -179t-239.5 -235.5t-364.5 -337.5h397q99 -1 155 30.5t91 113.5h41l-102 -288h-800q236 243 393 399.5t247 259t127 185.5t37 177
q0 108 -63 187t-183 83z" />
    <glyph glyph-name="three" unicode="3" 
d="M291 1181l-29 24q64 102 156 161t217 60q145 -2 227.5 -72t83.5 -186q-6 -132 -106.5 -215t-229.5 -120q116 -36 165 -131t48 -181q-3 -198 -156 -368t-417 -182q-117 2 -194.5 41.5t-81.5 99.5q1 29 19.5 54.5t55.5 27.5q100 -10 145 -78t166 -78q145 9 216 129.5
t71 243.5q4 126 -81 235.5t-308 116.5l8 37q212 11 353.5 97.5t146.5 229.5q-2 93 -62 142.5t-151 50.5q-62 0 -130.5 -35.5t-131.5 -103.5z" />
    <glyph glyph-name="four" unicode="4" 
d="M680 378l-111 -378h-163l110 378h-512l29 131l864 917h82l-262 -917h196l-36 -131h-197zM745 1181l-626 -672h434z" />
    <glyph glyph-name="five" unicode="5" 
d="M217 919l209 487h545l-58 -156h-483l-78 -184q247 -38 358 -173.5t109 -318.5q-10 -260 -188.5 -428t-409.5 -175q-109 1 -172.5 34t-65.5 98q1 29 19.5 53t58.5 25q79 -8 131.5 -65.5t131.5 -65.5q164 11 257 154t95 289q-1 159 -111.5 275t-322.5 122z" />
    <glyph glyph-name="six" unicode="6" 
d="M524 869q-177 -13 -243.5 -191t-63.5 -366q-2 -128 36 -206t140 -80q181 17 265 212.5t83 360.5q1 103 -48.5 184t-168.5 86zM33 415q4 339 255 645t703 387v-41q-211 -47 -381.5 -202.5t-240.5 -325.5q46 31 102 46t115 15q169 -4 256.5 -106t87.5 -250
q-5 -216 -155 -407t-382 -205q-184 8 -272.5 138t-87.5 306z" />
    <glyph glyph-name="seven" unicode="7" 
d="M176 1070l-37 4l156 332h823l-823 -1435h-131l741 1259h-471q-99 1 -156.5 -35.5t-101.5 -124.5z" />
    <glyph glyph-name="eight" unicode="8" 
d="M614 820q90 52 158 129.5t72 190.5q-2 106 -63 168.5t-158 64.5q-115 -3 -176 -68.5t-62 -160.5q5 -98 76.5 -179t152.5 -145zM233 1062q2 160 110 260.5t292 103.5q188 -6 267 -96t77 -194q-2 -120 -90.5 -205t-241.5 -139q90 -71 156 -167.5t69 -222.5
q0 -140 -121 -279.5t-370 -151.5q-166 1 -272 83t-109 242q10 201 144 308.5t270 146.5q-74 50 -126.5 131t-54.5 180zM143 308q0 -109 62.5 -197.5t191.5 -93.5q130 3 217.5 90t90.5 222q-2 112 -74.5 203t-188.5 182q-139 -57 -218.5 -164.5t-80.5 -241.5z" />
    <glyph glyph-name="nine" unicode="9" 
d="M500 538q191 21 248 237t51 369q1 92 -42.5 157t-138.5 68q-183 -17 -266 -210t-82 -363q-4 -97 42.5 -175t187.5 -83zM979 980q-11 -376 -280 -662t-670 -359l-9 41q235 67 392 210.5t231 310.5q-48 -28 -109.5 -42.5t-115.5 -14.5q-153 3 -243.5 100t-92.5 248
q4 210 148.5 405t387.5 209q193 -7 278 -140t83 -306z" />
    <glyph glyph-name="colon" unicode=":" horiz-adv-x="557" 
d="M-9 99q1 53 30.5 85.5t84.5 33.5q56 -1 83.5 -34.5t27.5 -84.5q0 -50 -29 -79.5t-82 -31.5q-52 1 -82.5 30t-32.5 81zM307 947q56 -1 85.5 -34.5t29.5 -84.5q-1 -50 -31.5 -81.5t-83.5 -32.5q-52 1 -82.5 31.5t-31.5 82.5q0 53 29 85.5t85 33.5z" />
    <glyph glyph-name="semicolon" unicode=";" horiz-adv-x="557" 
d="M324 947q55 -1 82.5 -34.5t27.5 -84.5q0 -50 -29 -81.5t-81 -32.5q-54 1 -88 31.5t-35 82.5q1 53 34 85.5t89 33.5zM123 -53q-7 46 -57.5 65t-57.5 96q0 45 26.5 80.5t84.5 37.5q62 -3 94.5 -52t32.5 -107q-2 -107 -89 -224t-240 -187l-12 41q87 49 151 118t67 132z" />
    <glyph glyph-name="less" unicode="&#x3c;" horiz-adv-x="1700" 
d="M262 538v131l1168 479v-152l-971 -393l971 -393v-152z" />
    <glyph glyph-name="equal" unicode="=" horiz-adv-x="1700" 
d="M254 337v135h1188v-135h-1188zM254 865h1188v-135h-1188v135z" />
    <glyph glyph-name="greater" unicode="&#x3e;" horiz-adv-x="1700" 
d="M1434 669v-131l-1168 -480v152l967 393l-967 393v152z" />
    <glyph glyph-name="question" unicode="?" horiz-adv-x="934" 
d="M401 87q-1 -53 -31.5 -85.5t-82.5 -34.5q-53 2 -85.5 36t-33.5 84q1 50 33 80t82 31q50 0 83.5 -29t34.5 -82zM549 1377q-68 -1 -107.5 -29t-40.5 -69q2 -23 18.5 -46.5t18.5 -68.5q0 -40 -21.5 -64.5t-64.5 -25.5q-54 1 -74.5 31t-19.5 80q0 88 78.5 166.5t228.5 83.5
q151 -1 246 -77.5t98 -209.5q-4 -131 -75.5 -212t-171 -152.5t-191.5 -174t-135 -276.5l-37 8q23 176 88.5 291t144 197.5t136 165.5t61.5 194q0 81 -46.5 133.5t-133.5 54.5z" />
    <glyph glyph-name="at" unicode="@" horiz-adv-x="2011" 
d="M1114 1439q354 -5 552.5 -191.5t201.5 -492.5q-9 -277 -155 -455t-324 -184q-112 3 -157.5 62.5t-55.5 142.5q-46 -83 -119 -140.5t-180 -60.5q-150 6 -217 103t-66 216q9 231 156.5 390.5t330.5 166.5q105 -2 152 -55.5t65 -132.5l58 172h151l-164 -573
q-28 -91 -21.5 -164.5t91.5 -77.5q93 -1 241.5 144t164.5 454q-2 260 -180.5 439.5t-512.5 187.5q-411 -14 -634 -277t-226 -608q24 -434 294.5 -588.5t500.5 -145.5q171 1 325 51.5t297 157.5l33 -41q-88 -69 -255 -142t-421 -80q-408 8 -651.5 230t-249.5 582
q9 382 280 641t695 269zM1094 951q-131 -16 -232.5 -208t-107.5 -373q0 -91 35.5 -145.5t111.5 -55.5q154 20 251.5 221.5t100.5 347.5q0 86 -39.5 148t-119.5 65z" />
    <glyph glyph-name="A" unicode="A" horiz-adv-x="1405" 
d="M1065 189q-3 -85 40.5 -122.5t135.5 -36.5l-4 -25h-565l8 25q91 -4 135 29.5t49 146.5l13 270h-484q-25 -2 -39 -18.5t-14 -18.5l-197 -233q-79 -97 -44.5 -135.5t139.5 -36.5q-1 -4 -5.5 -14.5t0.5 -14.5h-484l4 25q62 -2 125 29.5t138 121.5l1065 1254h37zM901 1107
l-467 -557h447z" />
    <glyph glyph-name="B" unicode="B" horiz-adv-x="1331" 
d="M618 783q198 2 303.5 90.5t106.5 241.5q0 103 -57 165.5t-176 64.5q-117 3 -149.5 -24t-51.5 -116l-94 -356q-16 -47 3.5 -57.5t114.5 -8.5zM463 58q227 4 338.5 115.5t111.5 278.5q0 130 -75 199.5t-228 70.5q-102 2 -128 -16t-40 -78l-123 -443q-22 -77 12 -103
t132 -24zM258 1406h569q204 -1 309 -78t105 -225q-2 -124 -95 -213t-249 -127q109 -29 174.5 -113t67.5 -211q0 -170 -149 -301t-441 -138h-648l12 38q96 -4 141.5 32.5t76.5 155.5l266 996q19 74 -17 110.5t-134 36.5q1 2 6 17t6 20z" />
    <glyph glyph-name="C" unicode="C" horiz-adv-x="1430" 
d="M78 538q11 336 267.5 608.5t629.5 288.5q145 -4 207 -31t116 -31q30 0 46.5 14t27.5 35h41l-82 -413h-41q2 178 -66 270.5t-229 93.5q-282 -14 -478.5 -267.5t-205.5 -580.5q-2 -177 92 -321.5t310 -153.5q144 1 266 68.5t229 185.5l41 -29q-87 -113 -228 -205t-366 -99
q-294 7 -436 167t-141 400z" />
    <glyph glyph-name="D" unicode="D" horiz-adv-x="1540" 
d="M1454 816q-17 -371 -291 -591t-602 -225h-664l8 34q108 1 151 40t59 107l282 1045q18 71 -21.5 107t-129.5 36l8 37h541q285 0 469 -147.5t190 -442.5zM516 62q331 9 514.5 238.5t186.5 572.5q0 232 -115 351.5t-340 120.5q-75 1 -111 -25.5t-53 -93.5l-266 -991
q-31 -103 6 -139t178 -34z" />
    <glyph glyph-name="E" unicode="E" horiz-adv-x="1380" 
d="M254 1406h1085l-61 -303h-33q3 149 -57.5 195t-220.5 42h-226q-62 2 -91 -25t-52 -114l-115 -418h189q143 -1 206.5 47t96.5 154h37l-140 -496h-32q12 117 -14 173.5t-158 56.5h-201l-139 -512q-23 -82 7.5 -113.5t135.5 -30.5h147q225 0 347 79.5t211 236.5h36
l-143 -378h-1168l4 34q108 0 154 41.5t68 130.5l266 995q22 83 -14 123.5t-137 40.5z" />
    <glyph glyph-name="F" unicode="F" horiz-adv-x="1233" 
d="M127 194l274 1011q23 83 -11.5 121.5t-135.5 38.5l12 41h1012l-66 -332h-36q7 132 -40 195t-157 63h-221q-75 1 -102.5 -17.5t-37.5 -64.5l-122 -475h114q148 -3 225 41t123 164h37l-131 -508h-41q20 136 -13 188t-130 50h-201l-135 -516q-25 -94 16 -130t148 -34
q-3 -7 -5.5 -18t-2.5 -12h-591l8 34q105 -1 147 35.5t63 124.5z" />
    <glyph glyph-name="G" unicode="G" horiz-adv-x="1642" 
d="M319 513q0 -200 112.5 -340.5t334.5 -146.5q144 5 221 57t86 94l82 344q18 69 -20 96.5t-156 26.5q0 2 2 17t2 20h586l-8 -37q-77 2 -125.5 -22.5t-67.5 -96.5l-106 -426q-121 -62 -245.5 -94.5t-279.5 -33.5q-334 9 -495 174t-160 397q11 346 271 612.5t642 280.5
q181 -6 264 -49.5t150 -49.5q51 1 74.5 23t40.5 59h37l-95 -430h-32q-17 153 -118 264.5t-308 116.5q-339 -22 -513.5 -303.5t-175.5 -552.5z" />
    <glyph glyph-name="H" unicode="H" horiz-adv-x="1581" 
d="M983 194l115 434q14 45 2.5 64t-68.5 18h-475q-59 2 -82 -10.5t-37 -63.5l-110 -410q-29 -103 2 -148t137 -44l-12 -34h-563q8 7 11 16t2 18q99 -2 144 30.5t70 129.5l274 1024q19 74 -17 110.5t-134 36.5l12 41h561l-8 -41q-104 0 -149 -35.5t-64 -111.5l-94 -345
q-18 -56 1 -74t97 -16h504q18 -1 31 8t22 42l102 385q20 81 -20.5 114.5t-122.5 32.5l4 41h561l-4 -41q-101 2 -146 -29t-67 -118l-266 -988q-32 -114 -3 -156t138 -40l-12 -34h-561l12 34q95 -4 140 24.5t73 135.5z" />
    <glyph glyph-name="I" unicode="I" horiz-adv-x="745" 
d="M823 1365q-101 3 -147 -33t-74 -143l-262 -983q-24 -97 12.5 -135.5t126.5 -36.5l-4 -34h-566l8 34q91 -3 138 30.5t76 141.5l266 983q27 94 -3.5 135.5t-139.5 40.5l12 41h565z" />
    <glyph glyph-name="J" unicode="J" horiz-adv-x="782" 
d="M467 1209q25 93 -17 123.5t-155 28.5l12 45h582q0 -11 -3.5 -28.5t-4.5 -16.5q-107 2 -145.5 -30t-59.5 -122q-14 -47 -40 -142t-58.5 -216t-64.5 -244t-58 -225q-53 -200 -150.5 -304.5t-238.5 -106.5q-97 2 -156.5 48.5t-62.5 124.5q2 43 29.5 78t73.5 37q48 -1 75 -29
t28 -69q-1 -21 -10 -39.5t-10 -42.5q-1 -27 11 -38t42 -11q65 4 95 94.5t61 220.5q41 152 117.5 447t107.5 417z" />
    <glyph glyph-name="K" unicode="K" horiz-adv-x="1380" 
d="M451 665l-127 -476q-22 -87 17 -121.5t146 -33.5q-1 -2 -7.5 -16.5t-4.5 -17.5h-574l8 34q89 -3 134.5 22.5t71.5 120.5q39 139 140.5 519t137.5 513q24 91 -16.5 126.5t-130.5 33.5l8 37h557l-8 -37q-93 1 -139 -33.5t-66 -113.5l-119 -447q-2 -16 11.5 -21.5t29.5 9.5
q117 92 304.5 244.5t260.5 214.5q61 52 52 98t-117 49l8 37h492l-13 -37q-85 -3 -161 -50.5t-146 -105.5q-82 -64 -248 -196t-276 -221q41 -60 100.5 -148t125 -182t118.5 -173t82 -120q50 -76 100.5 -108t116.5 -31l-4 -34h-598q3 5 5.5 18.5t2.5 15.5q136 2 146.5 51.5
t-44.5 124.5q-55 82 -148.5 222.5t-154.5 232.5q0 2 -11 18t-30 18q-15 -2 -23.5 -18t-8.5 -18z" />
    <glyph glyph-name="L" unicode="L" horiz-adv-x="1364" 
d="M815 1365q-99 1 -142.5 -33t-62.5 -110q-32 -116 -130 -482t-136 -510q-29 -102 -2.5 -136.5t129.5 -31.5h193q205 -3 316.5 69.5t211.5 262.5h37l-131 -394h-1189l8 34q96 -2 140.5 30.5t69.5 129.5q39 141 144 526t135 502q18 73 -19.5 108t-132.5 35l12 41h557z" />
    <glyph glyph-name="M" unicode="M" horiz-adv-x="1790" 
d="M254 1369l8 37h377l147 -1085l721 1085h381l-8 -37q-99 1 -143 -33t-66 -118q-35 -126 -135 -495.5t-135 -504.5q-28 -95 -1.5 -139.5t140.5 -44.5l-8 -34h-557l12 30q99 0 143 47t66 137q32 116 119 440t143 535l-794 -1189h-29l-160 1189q-59 -207 -149 -529.5
t-125 -449.5q-26 -100 18.5 -140.5t132.5 -39.5l-8 -30h-452l13 34q86 -2 134 29t72 118q36 130 141 503.5t141 500.5q27 86 -2 134.5t-137 49.5z" />
    <glyph glyph-name="N" unicode="N" horiz-adv-x="1520" 
d="M549 1406l524 -1085l234 868q27 89 -2.5 132.5t-149.5 43.5l12 41h455l-4 -41q-105 1 -152 -36.5t-69 -131.5q-35 -132 -148.5 -549t-187.5 -681h-37l-561 1169l-250 -922q-28 -97 0.5 -139t151.5 -41l-5 -38h-459l4 38q110 0 154 44t68 136q14 51 51 188.5t81 302
t81 299t49 177.5q21 81 -18 133.5t-125 54.5l8 37h295z" />
    <glyph glyph-name="O" unicode="O" horiz-adv-x="1569" 
d="M967 1435q270 -6 401.5 -155t130.5 -370q-5 -290 -243 -601t-646 -338q-300 10 -424 165.5t-120 351.5q10 334 266 630.5t635 316.5zM295 415q-4 -156 66.5 -270t256.5 -119q313 31 483.5 368.5t172.5 605.5q1 158 -70 265.5t-229 111.5q-306 -25 -490.5 -341.5
t-189.5 -620.5z" />
    <glyph glyph-name="P" unicode="P" horiz-adv-x="1225" 
d="M586 730q204 1 314.5 96.5t111.5 272.5q0 99 -56.5 172.5t-173.5 77.5h-65q-32 0 -62 -18.5t-41 -55.5q-6 -19 -21 -76t-35.5 -130t-39 -138.5t-26.5 -102.5q-21 -65 -4 -82.5t98 -15.5zM123 202q37 129 140.5 515.5t133.5 504.5q19 73 -18.5 108t-132.5 35l12 41h619
q186 -5 273.5 -98.5t86.5 -221.5q-5 -184 -153.5 -297t-387.5 -116h-139q-71 2 -91.5 -6t-27.5 -43q-6 -19 -20.5 -71t-32.5 -119.5t-34.5 -132t-26.5 -107.5q-24 -83 11 -121.5t161 -38.5l-9 -34h-586l8 34q110 0 151.5 41t62.5 127z" />
    <glyph glyph-name="Q" unicode="Q" horiz-adv-x="1569" 
d="M954 1377q-318 -29 -489.5 -360.5t-173.5 -618.5q-2 -144 70 -257t245 -119q299 26 475.5 349t180.5 625q4 129 -60.5 250.5t-247.5 130.5zM1393 -115q-102 -121 -218 -199.5t-282 -82.5q-96 2 -171 17t-139.5 36.5t-125 37t-129.5 15.5q-69 1 -124 -23t-118 -71
q-2 8 -12.5 20.5t-12.5 12.5l373 336q-185 54 -279 183.5t-94 312.5q10 345 265.5 640.5t631.5 314.5q270 -6 400 -153t129 -359q-14 -348 -274.5 -640.5t-594.5 -311.5h-90l-147 -114q23 -5 51.5 -2.5t50.5 2.5q88 0 163 -17.5t141.5 -39t130 -39t126.5 -19.5
q107 4 184 57.5t132 114.5z" />
    <glyph glyph-name="R" unicode="R" horiz-adv-x="1368" 
d="M123 198q12 53 50 196.5t85 316.5t85 313t50 185q22 83 -15 120t-132 36q3 10 5.5 25t2.5 16h610q201 0 309 -81.5t109 -238.5q-6 -153 -125.5 -247.5t-284.5 -128.5q45 -106 112 -265.5t106 -246.5q31 -78 70 -120.5t114 -43.5q-2 -7 -2.5 -18t-5.5 -16h-316l-282 689
q-22 0 -74 1t-135 7l-131 -499q-26 -91 10 -130t145 -38q0 -2 -3.5 -14.5t-4.5 -15.5h-574l8 34q94 -2 142.5 34t71.5 130zM475 763q42 -6 79 -9t73 -3q193 2 308 95t118 249q1 117 -71.5 180.5t-231.5 64.5q-61 1 -97 -22.5t-51 -83.5q-18 -72 -58.5 -223t-68.5 -248z" />
    <glyph glyph-name="S" unicode="S" horiz-adv-x="1118" 
d="M946 1381q19 -1 40.5 9t37.5 36h37l-62 -405h-32q3 118 -53 231t-209 121q-123 -3 -182.5 -72t-59.5 -165q2 -93 67.5 -173.5t152.5 -162.5t154.5 -182.5t71.5 -231.5q-6 -206 -135 -310t-307 -105q-148 5 -224.5 34t-119.5 33q-22 0 -44 -13.5t-38 -44.5h-33l70 455h33
q4 -160 80 -281.5t243 -127.5q131 4 206 87t77 203q-4 101 -71.5 186t-155 169t-155 180t-69.5 219q3 163 116 262.5t298 102.5q114 -3 170.5 -27t95.5 -27z" />
    <glyph glyph-name="T" unicode="T" horiz-adv-x="1274" 
d="M684 1226q21 68 5 88t-91 18q-206 2 -283.5 -57.5t-138.5 -208.5h-41l90 340h1168l-62 -348h-20h-17q22 173 -49 226t-237 48q-53 3 -76 -16t-43 -90q-33 -117 -136 -499.5t-139 -520.5q-29 -94 2.5 -133.5t186.5 -38.5l-12 -34h-639l8 34q128 0 176.5 43t69.5 129
q36 130 141.5 517.5t136.5 502.5z" />
    <glyph glyph-name="U" unicode="U" horiz-adv-x="1495" 
d="M799 1369q-100 0 -150.5 -40t-70.5 -120q-13 -41 -36.5 -128t-53 -196.5t-58.5 -219t-49 -197.5q-46 -173 14 -287.5t269 -118.5q171 1 278.5 106t159.5 300q24 98 48 185t46.5 166t43 151.5t38.5 140.5q39 137 10 198t-153 60l8 37h471q0 -10 -3.5 -23t-4.5 -14
q-101 6 -147 -38t-91 -216q-25 -86 -45 -158.5t-39.5 -142.5t-41 -152.5t-50.5 -193.5q-52 -225 -180.5 -359t-405.5 -138q-210 0 -350.5 121.5t-83.5 375.5q33 129 64.5 244.5t57 213t46 170t33.5 113.5q23 83 -13 121.5t-151 38.5l8 37h594z" />
    <glyph glyph-name="V" unicode="V" horiz-adv-x="1327" 
d="M283 -33h-41q11 261 27.5 673t21.5 549q5 100 -34 140.5t-142 39.5l8 37h557l-8 -37q-106 2 -145 -38t-40 -142q-4 -126 -16.5 -418.5t-19.5 -486.5q164 193 415.5 492t345.5 413q74 89 51 134.5t-137 45.5l9 37h430l-13 -37q-57 -2 -113 -52t-120 -128
q-37 -43 -163 -190.5t-292 -343t-323.5 -382t-257.5 -306.5z" />
    <glyph glyph-name="W" unicode="W" horiz-adv-x="1802" 
d="M1589 1369l8 37h426q0 -2 -3.5 -17t-4.5 -20q-69 -1 -122 -52.5t-107 -135.5q-33 -45 -132.5 -192.5t-229.5 -340t-253.5 -377t-203.5 -304.5h-33l37 972l-684 -972h-33q10 270 25.5 697.5t19.5 548.5q4 83 -38.5 121.5t-137.5 38.5l8 33h561l-8 -33q-105 0 -144 -40
t-40 -120q-4 -103 -17 -392.5t-20 -479.5l516 733q3 21 3.5 43.5t0.5 95.5q3 77 -30.5 116.5t-137.5 39.5q3 5 5.5 20t2.5 17h533l-13 -37q-82 2 -121 -32t-42 -124q-4 -113 -17 -394t-20 -466q118 175 297.5 446t251.5 382q59 89 36 138t-139 50z" />
    <glyph glyph-name="X" unicode="X" horiz-adv-x="1393" 
d="M184 1369l13 37h618q0 -2 -3.5 -17t-4.5 -20q-116 2 -150 -34t-2 -130q32 -98 66.5 -196t56.5 -168q81 80 197.5 191t187.5 181q66 66 45 110t-143 46q1 5 6 20t6 17h484q-1 -2 -6.5 -17t-6.5 -20q-69 -2 -124 -39.5t-109 -91.5q-68 -65 -234 -222t-274 -261
q16 -56 43 -136.5t54.5 -169t52 -163t38.5 -117.5q25 -79 85.5 -108t152.5 -27l-8 -34h-635l8 34q145 1 172 42t0 109q-12 35 -29.5 89.5t-37 116t-38 118.5t-30.5 98l-176 -176t-189 -188t-78 -146t164 -63l-12 -34h-529q2 3 7 17.5t5 16.5q74 3 152.5 56.5t139.5 115.5
q28 31 89.5 93t135.5 136l143.5 143.5t118.5 114.5q-18 51 -40.5 121t-48 143.5t-47 140t-36.5 111.5q-29 88 -87.5 124.5t-162.5 35.5z" />
    <glyph glyph-name="Y" unicode="Y" horiz-adv-x="1253" 
d="M1098 1185q79 97 37 141t-156 43l8 37h483l-12 -41q-48 0 -109 -46t-141 -138q-43 -47 -107.5 -120t-137 -157t-140 -160.5t-114.5 -132.5q-21 -70 -45.5 -163t-57.5 -218q-39 -123 -13.5 -163t185.5 -37l-8 -30h-623l9 30q97 -2 151 24.5t78 110.5q26 93 61 221t58 217
q-21 58 -49.5 135.5t-60.5 161.5t-58.5 159t-44.5 126q-36 100 -96 140.5t-154 39.5q1 10 4.5 25t3.5 16h610q-1 -2 -6 -17t-6 -20q-121 1 -151.5 -43t8.5 -141q18 -49 40.5 -112.5t48 -130t48.5 -128t39 -108.5q39 47 92 109.5t111.5 129t115 129t99.5 111.5z" />
    <glyph glyph-name="Z" unicode="Z" horiz-adv-x="1393" 
d="M1204 378h41l-127 -378h-1152v26l1107 1306h-426q-140 3 -239 -53.5t-166 -212.5h-37l106 340h1069v-21l-1122 -1314h418q227 -3 339.5 63t188.5 244z" />
    <glyph glyph-name="bracketleft" unicode="[" horiz-adv-x="864" 
d="M877 1361q-151 1 -196 -25t-54 -90q-41 -151 -96.5 -353t-114 -421t-113.5 -420.5t-94 -354.5q-21 -60 16.5 -83.5t200.5 -23.5l-4 -45h-418l496 1861h385z" />
    <glyph glyph-name="backslash" unicode="\" horiz-adv-x="561" 
d="M319 -188l-163 1623h77l168 -1623h-82z" />
    <glyph glyph-name="bracketright" unicode="]" horiz-adv-x="864" 
d="M324 1361l8 45h418l-496 -1861h-382l8 45q151 0 193 25t54 90q39 148 94 350t113.5 422t114 423t96.5 354q19 61 -23.5 84.5t-197.5 22.5z" />
    <glyph glyph-name="asciicircum" unicode="^" horiz-adv-x="2040" 
d="M1622 890h-98l-508 418l-512 -418h-94l512 557h188z" />
    <glyph glyph-name="underscore" unicode="_" 
d="M0 -483v139h1016v-139h-1016z" />
    <glyph glyph-name="grave" unicode="`" 
d="M651 1070q-62 53 -124.5 105.5t-120.5 99.5q-17 13 -33 34.5t-17 43.5q0 25 16 46.5t50 22.5q19 0 41.5 -11t36.5 -30l217 -311h-66z" />
    <glyph glyph-name="a" unicode="a" horiz-adv-x="1040" 
d="M885 927l-217 -787q-2 -18 10 -27.5t31 -9.5q29 3 70.5 45.5t76.5 94.5l29 -29q-46 -66 -126.5 -146t-168.5 -88q-43 1 -61 26t-17 69q1 52 19.5 123.5t46.5 154.5q-83 -147 -190 -256.5t-236 -116.5q-94 3 -131.5 66t-37.5 160q8 235 171 478.5t403 262.5
q67 -1 101.5 -29t46.5 -77l28 86h152zM664 775q1 48 -24 84.5t-83 38.5q-159 -18 -275 -241t-122 -435q0 -48 19 -86.5t59 -40.5q172 29 296 286.5t130 393.5z" />
    <glyph glyph-name="b" unicode="b" horiz-adv-x="1032" 
d="M152 140q-10 -47 22 -80t109 -34q209 16 334 213.5t128 388.5q1 78 -42 149t-138 76q-168 -6 -259 -204t-154 -509zM274 1263q16 60 -12 83.5t-110 22.5l8 33q134 14 205.5 36.5t89.5 24.5q27 0 31.5 -12t-3.5 -37q-37 -142 -90 -340.5t-90 -331.5q62 94 150.5 149
t193.5 56q144 -5 210 -91t65 -195q-6 -236 -187.5 -450.5t-472.5 -230.5q-158 3 -220.5 50t-46.5 114z" />
    <glyph glyph-name="c" unicode="c" horiz-adv-x="909" 
d="M696 239l29 -33q-77 -98 -184.5 -164.5t-237.5 -70.5q-167 8 -235.5 108t-67.5 217q7 256 179.5 448.5t422.5 202.5q110 -2 158 -45.5t47 -109.5q0 -55 -24.5 -83t-73.5 -28q-49 1 -68 23.5t-18 54.5q3 47 22.5 61t22.5 49q-3 16 -20.5 22.5t-45.5 6.5
q-164 -8 -291.5 -181.5t-134.5 -412.5q0 -96 49.5 -169t147.5 -77q87 2 173.5 53.5t149.5 127.5z" />
    <glyph glyph-name="d" unicode="d" horiz-adv-x="1077" 
d="M709 169q-12 -59 10 -73.5t35 -12.5q44 4 92.5 56t83.5 100l28 -29q-87 -115 -159 -176t-148 -63q-60 3 -78 34.5t-16 73.5q1 53 16.5 120.5t40.5 141.5q-126 -211 -225.5 -290t-204.5 -76q-112 4 -159 73t-47 170q11 261 193 487.5t411 241.5q53 1 94 -14.5t57 -63.5
l98 385q19 70 -2.5 95t-119.5 24l8 33q145 15 214 39t89 27q21 0 24 -15t-4 -43q-34 -125 -78 -288.5t-90.5 -339t-89.5 -336t-73 -281.5zM590 902q-191 -24 -312.5 -267t-125.5 -421q1 -55 33 -96t85 -43q146 20 283 256.5t147 455.5q0 48 -27.5 81t-82.5 34z" />
    <glyph glyph-name="e" unicode="e" horiz-adv-x="872" 
d="M180 419q-6 -43 -9 -77t-3 -58q-2 -89 38.5 -154t145.5 -68q89 3 175 53.5t141 114.5l28 -28q-59 -79 -164.5 -152t-252.5 -79q-145 4 -216 85.5t-72 210.5q10 266 190 467.5t417 212.5q95 -1 138 -44.5t42 -115.5q-9 -153 -185.5 -246.5t-412.5 -121.5zM193 464
q212 35 318.5 128.5t106.5 227.5q0 32 -18 52.5t-55 21.5q-123 -14 -228.5 -164.5t-123.5 -265.5z" />
    <glyph glyph-name="f" unicode="f" horiz-adv-x="602" 
d="M-120 -406q43 3 74 55t54 140t42.5 197t39.5 224l123 643h-193l13 61h192q28 191 127 366t299 187q84 -1 131.5 -40.5t48.5 -102.5q-1 -43 -25 -66.5t-65 -23.5q-40 0 -61 20t-21 54q1 23 8.5 39.5t8.5 33.5q0 11 -14.5 23.5t-38.5 13.5q-62 -2 -101 -55t-61.5 -135
t-37.5 -166t-30 -148h238l-8 -61h-238l-139 -668q-71 -282 -160 -461.5t-235 -186.5q-55 2 -89.5 33t-36.5 78q0 36 16 61t57 25q35 -1 51 -21t15 -41q-3 -33 -9.5 -54.5t25.5 -23.5z" />
    <glyph glyph-name="g" unicode="g" horiz-adv-x="872" 
d="M197 529q2 -54 39 -99t88 -48q120 8 186.5 125t67.5 248q0 58 -32.5 107t-103.5 52q-112 -9 -177.5 -132.5t-67.5 -252.5zM29 570q3 159 118 272t308 118q77 -1 140.5 -20t113.5 -50h168v-86h-140q6 -20 9.5 -49t3.5 -49q1 -133 -106 -245.5t-333 -119.5q-23 0 -38.5 0.5
t-39.5 3.5q-14 -25 -32.5 -43.5t-20.5 -34.5q2 -51 76 -78.5t169 -56.5t169 -85.5t78 -169.5q-4 -163 -137.5 -250.5t-346.5 -89.5q-153 2 -245.5 64.5t-95.5 173.5q6 103 85 177t170 115q-35 15 -60 39.5t-26 58.5q5 50 59.5 104t96.5 92q-65 39 -103.5 86.5t-39.5 122.5z
M-30 -201q-2 -79 52.5 -140t198.5 -65q167 4 240 65t71 148q-12 132 -141.5 169t-230.5 70q-58 -27 -121 -86t-69 -161z" />
    <glyph glyph-name="h" unicode="h" horiz-adv-x="1094" 
d="M512 1422q-29 -90 -63.5 -211.5t-72.5 -254t-72 -254t-58 -209.5q95 149 245.5 296t290.5 158q72 -1 96.5 -34t22.5 -89q-2 -51 -27.5 -148t-59.5 -208t-59.5 -202t-25.5 -130q0 -16 14 -28t35 -13q39 6 85.5 66t70.5 106l29 -20q-66 -125 -135.5 -199t-163.5 -77
q-55 2 -79 32t-24 80q0 39 24.5 133t56.5 208t56.5 209t26.5 134q0 23 -12.5 41.5t-40.5 19.5q-59 -3 -109 -42.5t-84 -79.5q-143 -149 -223 -302.5t-141 -407.5h-161l345 1254q23 84 -2.5 109t-116.5 22l8 33q150 18 212 39t79 23q24 5 31.5 -10.5t1.5 -43.5z" />
    <glyph glyph-name="i" unicode="i" horiz-adv-x="537" 
d="M266 1291q1 47 30.5 76.5t76.5 30.5q49 -1 73.5 -31.5t24.5 -75.5q0 -46 -26 -73.5t-72 -28.5q-45 0 -75.5 26.5t-31.5 75.5zM373 947q12 0 14.5 -8.5t1.5 -24.5q-2 -14 -34.5 -123.5t-75.5 -252t-75 -259t-32 -147.5q1 -16 13.5 -31.5t31.5 -13.5q42 5 92.5 58t83.5 98
l29 -29q-49 -72 -135 -153.5t-181 -89.5q-73 2 -89 40t-13 101q0 18 17.5 92t45 170t54 188t43.5 148q27 84 6 118t-117 33l8 37q165 14 231 30.5t81 18.5z" />
    <glyph glyph-name="j" unicode="j" horiz-adv-x="528" 
d="M274 1291q1 45 31.5 75.5t71.5 31.5q41 -1 71 -29.5t31 -73.5q0 -44 -24.5 -74.5t-73.5 -31.5q-50 1 -78 29.5t-29 72.5zM348 951q22 0 28.5 -16.5t0.5 -44.5q-39 -185 -96.5 -448t-100.5 -446q-47 -202 -131 -328t-198 -131q-61 2 -99 35t-40 80q0 39 16 64.5t54 25.5
q40 0 55.5 -20.5t13.5 -53.5q-2 -31 -4.5 -55.5t33.5 -26.5q53 11 90.5 146t62.5 268q12 65 31.5 158t40 196.5t41 197.5t34.5 162q19 95 -10.5 122.5t-112.5 24.5l9 33q144 17 204 36t78 21z" />
    <glyph glyph-name="k" unicode="k" horiz-adv-x="1028" 
d="M664 -29q-60 1 -93.5 40.5t-62.5 116.5l-143 348l-132 -98l-114 -386h-157l353 1271q23 71 -6.5 93.5t-120.5 20.5q1 2 6.5 17t6.5 20q137 14 210.5 32.5t88.5 20.5q16 5 25.5 -6.5t6.5 -21.5q-59 -204 -140.5 -488.5t-137.5 -482.5l381 283q60 43 63.5 83.5t-96.5 43.5
l12 36h406l-8 -36q-70 -3 -135 -32.5t-95 -53.5l-286 -218q36 -84 84 -198t84 -199q9 -29 32 -54.5t54 -27.5q46 4 89 47.5t74 83.5l29 -28q-49 -79 -127 -150t-151 -77z" />
    <glyph glyph-name="l" unicode="l" horiz-adv-x="524" 
d="M373 247l33 -29q-107 -138 -184.5 -187t-135.5 -47q-51 2 -69 32.5t-18 74.5q0 35 35.5 177.5t86.5 333t101 369.5t81 288q20 70 -8 98.5t-119 27.5q5 13 5.5 22t2.5 15q151 20 218 36.5t85 17.5q29 -1 31 -20.5t-6 -45.5q-37 -125 -93.5 -320.5t-113.5 -401.5
t-97 -355.5t-40 -183.5q0 -22 8 -34t29 -12q29 -2 64.5 27.5t103.5 116.5z" />
    <glyph glyph-name="m" unicode="m" horiz-adv-x="1671" 
d="M1307 763q0 34 -15.5 49.5t-46.5 15.5q-48 -3 -96.5 -38.5t-75.5 -63.5q-170 -179 -261 -381.5t-120 -348.5h-160q33 120 69 239.5t68.5 226t53 186.5t22.5 119q0 31 -15 48.5t-46 17.5q-44 -5 -111.5 -55t-105.5 -89q-124 -126 -197 -280.5t-151 -412.5h-153l210 738
q21 78 -12.5 105.5t-114.5 25.5l8 37q152 11 223.5 29t88.5 20q12 -1 17.5 -12.5t2.5 -24.5l-115 -385q120 169 260 292.5t269 129.5q115 -4 114 -116t-53 -285q114 178 245.5 286t242.5 111q177 -4 118 -214.5t-155 -579.5q-3 -23 7 -40t26 -18q53 5 97.5 61.5t70.5 98.5
l28 -33q-47 -80 -126 -162t-181 -89q-54 2 -74.5 33.5t-19.5 78.5q0 51 24.5 148.5t56 207t56.5 199.5t27 125z" />
    <glyph glyph-name="n" unicode="n" horiz-adv-x="1106" 
d="M737 763q0 25 -14.5 42.5t-42.5 18.5q-54 -2 -107 -41.5t-94 -85.5q-154 -167 -226.5 -327t-125.5 -374h-161l210 726q25 78 -5 109t-122 30l12 37q171 14 236.5 32.5t79.5 20.5q16 0 22.5 -9t-2.5 -28l-114 -385q84 129 225.5 268t290.5 150q158 -1 103.5 -199
t-157.5 -583q-6 -26 5 -47.5t32 -22.5q45 5 90 62t74 110l33 -20q-72 -127 -144 -200.5t-163 -75.5q-52 2 -75.5 29.5t-23.5 74.5q0 39 25 138t56.5 217t56 211t26.5 122z" />
    <glyph glyph-name="o" unicode="o" horiz-adv-x="1065" 
d="M618 947q161 -4 246 -101.5t86 -234.5q-8 -222 -188 -423.5t-443 -216.5q-160 4 -243 94.5t-85 234.5q11 242 201.5 438.5t425.5 208.5zM164 226q0 -77 43.5 -137t132.5 -63q196 21 313.5 249.5t120.5 409.5q0 88 -43 145.5t-129 59.5q-202 -19 -319 -242.5t-119 -421.5z
" />
    <glyph glyph-name="p" unicode="p" horiz-adv-x="1036" 
d="M750 669q2 73 -30.5 125.5t-117.5 54.5q-189 -15 -279.5 -241t-138.5 -484q-8 -47 22.5 -76.5t92.5 -30.5q190 17 318 229.5t133 422.5zM57 886q140 17 212.5 36t95.5 21q20 0 23.5 -10.5t-3.5 -34.5l-45 -160q62 83 149 144.5t195 64.5q134 -5 191 -89t55 -193
q-6 -224 -180.5 -449.5t-450.5 -244.5q-41 2 -83.5 12t-68.5 22l-69 -275q-28 -98 -0.5 -130t147.5 -30l-3.5 -12.5t-4.5 -20.5h-505l8 33q103 2 142.5 45.5t54.5 114.5q25 104 58 234.5t69 270t68.5 268.5t59.5 227q20 62 0.5 92.5t-123.5 30.5q1 1 4.5 11.5t3.5 21.5z" />
    <glyph glyph-name="q" unicode="q" horiz-adv-x="1028" 
d="M799 927h151l-323 -1173q-36 -116 -9.5 -151.5t144.5 -32.5l-4 -33h-512l4 33q117 -1 154.5 39.5t62.5 144.5l147 554q-66 -118 -181.5 -223.5t-264.5 -113.5q-112 5 -155.5 80.5t-42.5 174.5q10 236 191 469.5t433 251.5q70 0 112.5 -31.5t63.5 -87.5zM270 75
q166 21 306 251.5t149 411.5q1 69 -30.5 113.5t-104.5 46.5q-159 -16 -292.5 -229.5t-141.5 -429.5q-1 -67 24.5 -114.5t89.5 -49.5z" />
    <glyph glyph-name="r" unicode="r" horiz-adv-x="680" 
d="M119 0h-153l181 669q28 95 11 138t-121 42l4 33q137 19 212 37.5t99 19.5q18 0 19.5 -8.5t-2.5 -24.5l-103 -377q65 116 122 196t104 132q24 29 59 53t76 25q48 -1 67.5 -29.5t18.5 -72.5q0 -45 -29.5 -81t-85.5 -38q-42 1 -62 25.5t-28 56.5q-161 -181 -243.5 -370
t-145.5 -426z" />
    <glyph glyph-name="s" unicode="s" horiz-adv-x="758" 
d="M397 898q-48 -1 -86.5 -34.5t-40.5 -84.5q2 -53 42 -111.5t93.5 -123t94.5 -137t45 -156.5q-3 -125 -92 -201t-228 -79q-76 3 -126.5 19.5t-86.5 18.5q-12 0 -24.5 -6t-17.5 -19h-32l40 324h30q8 -123 57.5 -205.5t147.5 -85.5q75 2 121 51t47 121q-2 70 -41 131.5
t-90 121t-89 127t-38 149.5q5 113 79.5 171t162.5 58q93 -2 142 -19.5t75 -25.5q18 3 33 11t24 26h29l-41 -299h-33q-12 78 -49.5 164.5t-147.5 93.5z" />
    <glyph glyph-name="t" unicode="t" horiz-adv-x="565" 
d="M16 157l185 696h-140l9 41q122 25 207.5 114.5t132.5 172.5h45l-78 -267h172l-17 -61h-172l-172 -659q-7 -35 -2.5 -64t31.5 -31q38 3 83.5 50.5t80.5 97.5l29 -33q-45 -68 -125 -143.5t-183 -82.5q-66 2 -84 46.5t-2 122.5z" />
    <glyph glyph-name="u" unicode="u" horiz-adv-x="1106" 
d="M381 910l-193 -675q-16 -65 1 -98.5t49 -33.5q118 9 297 243.5t260 584.5h159l-204 -750q-2 -34 3 -53.5t38 -19.5q50 5 98 58.5t74 92.5l24 -24q-52 -83 -129.5 -163.5t-181.5 -87.5q-67 3 -88.5 49.5t-5.5 110.5l86 324q-120 -189 -250.5 -330.5t-274.5 -149.5
q-93 5 -115.5 79t1.5 168l127 466q26 89 2.5 129t-117.5 39l4 29q115 14 207.5 30.5t112.5 18.5q15 0 18.5 -8t-2.5 -29z" />
    <glyph glyph-name="v" unicode="v" horiz-adv-x="905" 
d="M-5 894q99 16 161.5 34t81.5 19q23 0 30 -13.5t6 -35.5q19 -147 35 -366.5t23 -366.5q89 83 237 268t164 281q-6 38 -47 62t-47 93q1 34 25.5 55.5t64.5 22.5q55 -2 79 -41.5t23 -85.5q-4 -88 -70.5 -201.5t-165.5 -233.5t-198.5 -227.5t-167.5 -186.5h-41
q-9 145 -25 360t-32 362q-9 94 -36.5 130t-107.5 34z" />
    <glyph glyph-name="w" unicode="w" horiz-adv-x="1352" 
d="M1278 820q-2 -92 -58.5 -195.5t-143.5 -213t-180 -221t-171 -219.5h-33l-74 698l-442 -698h-33l-16 673q-6 124 -31.5 175.5t-100.5 49.5l4 33q107 17 160 32.5t70 16.5q15 0 21 -10.5t8 -26.5q26 -132 27.5 -323t5.5 -324l426 684h37l73 -745q100 110 221 271t132 237
q-5 30 -43 65t-43 86q1 37 26 59t60 23q49 -1 73.5 -37t24.5 -90z" />
    <glyph glyph-name="x" unicode="x" horiz-adv-x="844" 
d="M348 67l-61 299q-81 -114 -127 -178.5t-86 -116.5q-22 -30 -65.5 -59t-103.5 -32q-48 2 -69 24t-21 54q2 39 23 64.5t54 26.5q36 -2 55.5 -16.5t47.5 -16.5q39 -2 94.5 73t180.5 254l-61 299q-9 56 -42.5 89t-92.5 34q-19 0 -39.5 -2.5t-39.5 -5.5l4 33q132 20 201 41.5
t87 23.5q27 -3 37 -17t12 -36l57 -282q50 74 102 144t99 126q16 19 50.5 37.5t72.5 19.5q51 0 74.5 -19t23.5 -59q0 -35 -17.5 -58t-52.5 -24q-38 2 -57.5 12.5t-48.5 12.5q-39 1 -86.5 -63.5t-142.5 -210.5q10 -45 22 -117t28.5 -145.5t39 -124t53.5 -52.5q47 5 93 56.5
t75 95.5l29 -29q-65 -99 -138.5 -172.5t-156.5 -78.5q-44 2 -72 29.5t-35 66.5z" />
    <glyph glyph-name="y" unicode="y" horiz-adv-x="819" 
d="M123 -279q-69 -85 -126.5 -133.5t-124.5 -50.5q-57 2 -79.5 22.5t-22.5 51.5q1 39 21.5 64.5t59.5 25.5q40 -1 65 -15.5t50 -17.5q48 5 118.5 97.5t157.5 218.5l-140 701q-15 87 -50.5 133.5t-97.5 46.5q-21 2 -22 19t22 22q98 14 149.5 31t72.5 18q29 -1 39 -24.5
t18 -61.5q28 -108 71 -333.5t65 -370.5q125 195 206 336.5t84 204.5q-6 59 -49 81t-49 78q0 38 23.5 63.5t66.5 26.5q52 -1 77.5 -34.5t25.5 -83.5q-1 -95 -38 -186.5t-93 -186.5q-84 -144 -221 -355.5t-279 -387.5z" />
    <glyph glyph-name="z" unicode="z" horiz-adv-x="807" 
d="M49 734q1 40 46 122t122 91q87 -4 215.5 -30.5t169.5 -30.5q65 3 97 29t55 32q31 -3 25 -22.5t-9 -22.5l-692 -758q19 4 50 8.5t56 4.5q86 -3 165.5 -20.5t121.5 -20.5q66 1 102 37t62 98l33 -16q-23 -81 -69.5 -168.5t-139.5 -95.5q-124 5 -240.5 36t-181.5 35
q-49 -4 -83 -28.5t-53 -29.5q-21 2 -24.5 17t7.5 29l694 753l-127 -12q-63 3 -129 22.5t-113 22.5q-71 -6 -97 -49t-38 -49z" />
    <glyph glyph-name="braceleft" unicode="{" 
d="M606 288v-283q-2 -90 51 -143t183 -55v-49q-200 -1 -295 63t-94 213v282q2 150 -60.5 210t-214.5 69v70q144 6 210 62.5t65 195.5v290q2 169 105.5 230t283.5 57v-49q-122 0 -178.5 -53t-55.5 -160v-270q4 -136 -57 -222.5t-230 -117.5q166 -25 228 -111.5t59 -228.5z
" />
    <glyph glyph-name="bar" unicode="|" 
d="M582 1549v-2032h-144v2032h144z" />
    <glyph glyph-name="braceright" unicode="}" 
d="M410 5v283q-3 142 58.5 228.5t227.5 111.5q-168 31 -229 117.5t-57 222.5v270q1 107 -55.5 160t-178.5 53v49q181 4 284 -57t105 -230v-290q-1 -139 65 -195.5t210 -62.5v-70q-152 -9 -214.5 -69t-60.5 -210v-282q1 -149 -94.5 -213t-294.5 -63v49q130 2 183 55t51 143z
" />
    <glyph glyph-name="asciitilde" unicode="~" horiz-adv-x="2040" 
d="M418 1054q41 107 122.5 175t221.5 70q67 0 141 -18t147.5 -41.5t143.5 -42t133 -20.5q72 0 137 35t101 100l57 -33q-39 -98 -120.5 -164t-215.5 -69q-69 2 -143 20t-148.5 42t-143.5 42t-130 18q-88 -1 -146 -39.5t-100 -103.5z" />
    <glyph glyph-name="exclamdown" unicode="&#xa1;" horiz-adv-x="606" 
d="M106 -33q-49 1 -71.5 29.5t-22.5 86.5q0 43 37 131t96.5 214t127 283.5t133.5 342.5l28 -8q-45 -191 -100 -461.5t-88 -464.5q-9 -55 -42 -102t-98 -51zM590 1320q0 -51 -28.5 -84.5t-86.5 -34.5q-59 2 -89 39.5t-30 79.5q1 42 32 77.5t87 37.5q56 -1 85.5 -33t29.5 -82z
" />
    <glyph glyph-name="cent" unicode="&#xa2;" 
d="M778 681q-45 1 -65.5 25.5t-20.5 56.5q3 53 22.5 62.5t22.5 35.5q-1 18 -21.5 25.5t-51.5 7.5l-291 -815q16 -13 39.5 -21t46.5 -8q85 4 170 62.5t137 126.5l37 -33q-56 -82 -161.5 -155.5t-219.5 -79.5h-90l-99 -266h-69l102 283q-103 38 -150 118t-46 194
q6 237 160 420t384 227l91 242h69l-90 -238q90 -6 143 -46.5t54 -108.5q0 -56 -25.5 -85.5t-77.5 -29.5zM590 882q-166 -73 -249 -234.5t-83 -339.5q-1 -63 10 -105.5t47 -78.5z" />
    <glyph glyph-name="sterling" unicode="&#xa3;" 
d="M135 787h209q15 199 136 410.5t351 228.5q99 -1 150 -42.5t51 -112.5q0 -52 -18.5 -71.5t-55.5 -18.5q-51 1 -69 34t-17 80q-1 38 -19 61.5t-46 24.5q-130 -22 -192 -237t-78 -357h254l-13 -77h-270q-31 -144 -73.5 -264t-86.5 -195q70 -43 174 -87.5t174 -47.5
q65 1 119.5 28t89.5 62l29 -29q-42 -69 -124.5 -132.5t-182.5 -69.5q-113 3 -190.5 43.5t-137.5 97.5q-32 -49 -79 -87t-126 -41q-56 2 -87 36t-33 88q3 78 56 128t138 52q20 0 48.5 -4.5t53.5 -7.5q18 56 32.5 159t29.5 271h-209zM119 206q-44 -1 -67 -28.5t-23 -65.5
q0 -29 19.5 -53t53.5 -25q51 2 85.5 37t41.5 86q-17 21 -42.5 35t-67.5 14z" />
    <glyph glyph-name="currency" unicode="&#xa4;" horiz-adv-x="1237" 
d="M1036 873q0 -66 -22.5 -130.5t-63.5 -114.5l205 -205l-82 -82l-205 205q-51 -40 -114 -63t-140 -23q-85 1 -146 26t-103 60l-205 -205l-82 82l205 205q-38 51 -60 112t-22 138q1 79 24 140t58 109l-205 205l82 78l205 -205q39 32 99 58t154 28q88 -1 148 -25.5t102 -56.5
l205 201l82 -78l-205 -205q41 -47 63.5 -115.5t22.5 -138.5zM618 1181q-145 -6 -221.5 -101.5t-77.5 -206.5q2 -110 81.5 -201.5t213.5 -97.5q143 6 224.5 100t83.5 199q0 106 -76.5 203.5t-227.5 104.5z" />
    <glyph glyph-name="yen" unicode="&#xa5;" horiz-adv-x="1282" 
d="M426 202l115 434h-542l13 61h512l-82 217h-372l16 58h332l-86 233q-32 94 -83 130t-138 34q1 10 6 23t6 14h536q0 -2 -3.5 -17t-4.5 -20q-121 1 -148 -43t9 -141l172 -479l422 479q76 95 36 139.5t-155 44.5l8 37h496l-8 -41q-73 2 -131.5 -39t-155.5 -149l-180 -205h315
l-12 -58h-356l-201 -217h495l-12 -61h-536l-111 -406q-41 -125 -10.5 -162.5t182.5 -33.5l-8 -34h-586l12 34q106 -2 160.5 33.5t77.5 134.5z" />
    <glyph glyph-name="brokenbar" unicode="&#xa6;" 
d="M582 1418v-749h-144v749h144zM438 402h144v-750h-144v750z" />
    <glyph glyph-name="section" unicode="&#xa7;" 
d="M283 -254q-134 4 -208 67t-75 142q0 48 26.5 85t84.5 39q55 -1 80.5 -26.5t25.5 -64.5q-4 -47 -35 -75.5t-35 -55.5q3 -30 43.5 -47.5t83.5 -18.5q85 3 142 54t59 126q-4 75 -57 159t-124 173t-124 181.5t-55 184.5q3 107 76 177t186 73l69 -5q-44 55 -70.5 120
t-27.5 139q-1 108 78 183.5t250 78.5q124 -2 194.5 -55.5t71.5 -141.5q-1 -56 -31.5 -87t-83.5 -32q-46 1 -72 26.5t-26 63.5q4 50 31 70.5t31 48.5q-1 26 -32.5 43.5t-78.5 18.5q-95 -2 -141.5 -49t-46.5 -119q2 -74 55 -155t123.5 -171t124 -186.5t57.5 -200.5
q-3 -98 -75.5 -164.5t-182.5 -69.5l-78 9q53 -67 82 -136.5t29 -142.5q-3 -115 -98.5 -185.5t-245.5 -73.5zM565 329q71 1 107.5 40t36.5 99q-7 84 -102.5 230.5t-200.5 162.5q-63 -1 -106.5 -38t-45.5 -97q7 -94 105 -238t206 -159z" />
    <glyph glyph-name="dieresis" unicode="&#xa8;" 
d="M762 1312q51 -2 74.5 -33t23.5 -61q1 -30 -18 -63t-76 -36q-57 3 -78 36t-20 63q-1 30 20.5 61t73.5 33zM319 1218q0 38 26 65.5t73 28.5q46 -2 70 -31.5t24 -62.5q1 -33 -18.5 -65t-71.5 -34q-52 2 -77.5 31t-25.5 68z" />
    <glyph glyph-name="copyright" unicode="&#xa9;" horiz-adv-x="1675" 
d="M827 1091q100 -4 152.5 -35t81.5 -35q23 2 41.5 23.5t19.5 41.5h33v-311h-37q3 39 -59.5 148t-222.5 123q-137 -6 -192.5 -117t-53.5 -252q1 -188 71.5 -284.5t194.5 -96.5q101 3 171 56.5t108 115.5l36 -16q-38 -78 -119.5 -143.5t-224.5 -69.5q-149 2 -273 110.5
t-132 306.5q4 191 118 311t287 124zM131 665q5 276 196 488.5t509 223.5q332 -10 518.5 -217.5t189.5 -490.5q2 -240 -176.5 -462.5t-523.5 -239.5q-306 10 -506 210t-207 488zM221 665q15 -305 212.5 -461.5t402.5 -157.5q246 5 429.5 176t192.5 447q-9 281 -189.5 451
t-428.5 175q-270 -7 -441.5 -187t-177.5 -443z" />
    <glyph glyph-name="ordfeminine" unicode="&#xaa;" horiz-adv-x="778" 
d="M664 611v-110h-677v110h677zM549 1390h115l-164 -553q-6 -27 30 -25.5t113 94.5l21 -16q-39 -51 -99.5 -107t-126.5 -61q-30 1 -43.5 20.5t-13.5 44.5q1 40 15.5 88t33.5 109q-61 -102 -139 -180t-185 -82q-64 1 -91.5 44t-27.5 112q6 169 129.5 338t301.5 182
q38 0 69 -20t41 -54zM496 1279q0 32 -20.5 58t-57.5 28q-121 -13 -208 -170.5t-91 -296.5q0 -33 14 -62.5t39 -31.5q28 0 59 12.5t56 40.5q99 104 153.5 218.5t55.5 203.5z" />
    <glyph glyph-name="guillemotleft" unicode="&#xab;" horiz-adv-x="840" 
d="M303 95q-23 5 -51 49.5t-47 73.5q-36 42 -86.5 110.5t-89.5 106.5q-18 16 -12.5 32.5t24.5 29.5q48 37 110.5 89.5t110.5 86.5q68 59 117 108t80 52q51 -13 -73 -147t-226 -230q38 -61 113 -202.5t30 -158.5zM639 95q-23 5 -51 49.5t-47 73.5q-36 42 -86.5 110.5
t-89.5 106.5q-18 16 -12.5 32.5t24.5 29.5q48 37 110.5 89.5t110.5 86.5q68 59 117 108t80 52q51 -13 -73 -147t-226 -230q37 -61 112.5 -202.5t30.5 -158.5z" />
    <glyph glyph-name="logicalnot" unicode="&#xac;" horiz-adv-x="1700" 
d="M254 849h1192v-496h-135v361h-1057v135z" />
    <glyph glyph-name="registered" unicode="&#xae;" horiz-adv-x="1675" 
d="M795 673h-62v-262q-1 -35 26 -60t93 -26v-45h-385v45q75 1 100 29t23 69v508q0 63 -30.5 87t-92.5 23v41h430q117 -1 196.5 -53t82.5 -139q-5 -97 -90 -144t-197 -61q209 -68 216.5 -206t65.5 -154q37 1 53.5 34.5t16.5 92.5h41q2 -74 -32.5 -130t-127.5 -59
q-177 21 -154.5 185.5t-172.5 224.5zM131 665q5 276 196 488.5t509 223.5q332 -10 518.5 -217.5t189.5 -490.5q2 -240 -176.5 -462.5t-523.5 -239.5q-306 10 -506 210t-207 488zM221 665q15 -305 212.5 -461.5t402.5 -157.5q246 5 429.5 176t192.5 447q-9 281 -189.5 451
t-428.5 175q-270 -7 -441.5 -187t-177.5 -443zM831 1046q-49 1 -73.5 -16t-24.5 -62v-258h94q77 -1 133.5 41.5t59.5 134.5q-2 77 -56 118.5t-133 41.5z" />
    <glyph glyph-name="overscore" unicode="&#xaf;" 
d="M0 1410v139h1016v-139h-1016z" />
    <glyph glyph-name="degree" unicode="&#xb0;" horiz-adv-x="672" 
d="M139 1160q1 -71 52 -131.5t141 -64.5q93 4 142.5 62.5t49.5 129.5q-1 71 -49.5 132t-138.5 65q-93 -4 -144.5 -63t-52.5 -130zM332 873q-147 6 -215.5 97t-67.5 190q0 98 71 187.5t216 95.5q146 -8 214.5 -103.5t67.5 -183.5q1 -87 -69 -181t-217 -102z" />
    <glyph glyph-name="plusminus" unicode="&#xb1;" horiz-adv-x="1700" 
d="M918 366h-136v340h-528v135h528v340h136v-340h528v-135h-528v-340zM254 26v135h1192v-135h-1192z" />
    <glyph glyph-name="twosuperior" unicode="&#xb2;" horiz-adv-x="672" 
d="M135 1222l-24 16q42 57 108 114.5t166 61.5q93 0 165.5 -54t76.5 -159q-2 -63 -35 -116.5t-97.5 -109.5t-160.5 -134t-223 -193h278q55 0 92.5 20.5t59.5 65.5h24l-69 -172h-526q120 119 218.5 205t168 153.5t107.5 128t40 128.5q-1 69 -47 111.5t-121 43.5
q-63 -2 -116 -35t-85 -75z" />
    <glyph glyph-name="threesuperior" unicode="&#xb3;" horiz-adv-x="672" 
d="M184 1271l-16 16q44 49 98.5 87t139.5 40q83 1 144 -35.5t64 -115.5q-6 -91 -77 -137.5t-136 -63.5q57 -16 97 -64.5t39 -128.5q-4 -125 -109.5 -223t-263.5 -104q-65 0 -120.5 22t-60.5 68q1 19 12 31.5t34 13.5q67 -6 97.5 -47t106.5 -47q85 4 136.5 72.5t52.5 152.5
q-8 131 -86.5 174t-134.5 39h-37l4 20h33q59 -2 172.5 41.5t126.5 155.5q-1 53 -38.5 83.5t-96.5 31.5q-50 -1 -97 -24t-84 -58z" />
    <glyph glyph-name="acute" unicode="&#xb4;" 
d="M799 1283l-316 -213h-73l303 320q3 7 22.5 19t50.5 13q34 -1 52 -22.5t18 -46.5q-1 -21 -18 -38t-39 -32z" />
    <glyph glyph-name="mu" unicode="&#xb5;" horiz-adv-x="1163" 
d="M377 -20q-97 3 -155 58t-62 139q-33 -109 -51.5 -268t-38.5 -241q-10 -37 -34 -60.5t-53 -25.5q-66 2 -79.5 54.5t17.5 150.5q64 211 139 530t124 556h164l-115 -557q-16 -76 20.5 -132.5t139.5 -59.5q77 -1 141.5 43.5t88.5 144.5l118 561h168l-135 -638
q-6 -37 20 -74.5t87 -40.5q74 3 118 60t54 128q0 7 5.5 19.5t22.5 13.5q21 -1 25 -13.5t0 -19.5q-4 -109 -66.5 -214t-208.5 -114q-85 4 -123.5 64.5t-35.5 140.5q-39 -88 -108 -145t-187 -60z" />
    <glyph glyph-name="paragraph" unicode="&#xb6;" 
d="M66 1111q5 164 105.5 257t238.5 95h540v-82h-119v-1381h-106v1381h-180v-1381h-107v775q-179 5 -275 103.5t-97 232.5z" />
    <glyph glyph-name="periodcentered" unicode="&#xb7;" horiz-adv-x="1028" 
d="M512 550q-51 2 -88 39t-39 88q2 51 39 88t88 39q51 -2 88 -39t39 -88q-2 -51 -39 -88t-88 -39z" />
    <glyph glyph-name="cedilla" unicode="&#xb8;" 
d="M393 -111q84 1 131.5 -40t48.5 -119q1 -72 -49.5 -122.5t-163.5 -53.5q-73 1 -145 21t-145 56l32 70q69 -33 125 -51t97 -19q53 1 87 22t35 60q0 45 -26 74t-84 29l-90 -13l57 193h62l-33 -111z" />
    <glyph glyph-name="onesuperior" unicode="&#xb9;" horiz-adv-x="676" 
d="M446 583v-21h-434l8 21q71 -3 116.5 20.5t72.5 106.5l168 532q13 38 0.5 61.5t-58.5 24.5q-27 0 -53 -2.5t-45 -5.5v20q133 29 209 51t86 23q16 0 19.5 -9t-3.5 -28l-221 -688q-22 -58 0.5 -82.5t134.5 -23.5z" />
    <glyph glyph-name="ordmasculine" unicode="&#xba;" horiz-adv-x="799" 
d="M-5 493v110h718v-110h-718zM713 1164q-6 -162 -143.5 -301.5t-327.5 -148.5q-126 2 -186 65t-61 160q7 166 143.5 308t324.5 151q123 -3 186.5 -71t63.5 -163zM446 1361q-117 -9 -217 -150t-106 -301q0 -69 33 -113t106 -46q138 15 227.5 172t92.5 282q-1 64 -37.5 109
t-98.5 47z" />
    <glyph glyph-name="guillemotright" unicode="&#xbb;" horiz-adv-x="840" 
d="M553 472q-38 60 -113 204t-30 161q22 -5 50 -51.5t48 -75.5q36 -41 86.5 -109.5t89.5 -107.5q18 -16 12.5 -32.5t-24.5 -29.5q-49 -37 -111 -89.5t-110 -86.5q-68 -59 -117 -108t-80 -52q-54 13 71 147t228 230zM172 710q36 -41 86.5 -109.5t89.5 -107.5
q18 -16 12.5 -32.5t-24.5 -29.5q-49 -37 -111 -89.5t-110 -86.5q-67 -59 -114.5 -108t-79.5 -52q-53 13 70 147t226 230q-38 60 -112 204t-31 161q22 -5 50 -51.5t48 -75.5z" />
    <glyph glyph-name="onequarter" unicode="&#xbc;" horiz-adv-x="1626" 
d="M352 1230q26 67 2.5 90.5t-145.5 7.5v21q126 23 198 45t93 24q14 0 14.5 -9t-6.5 -28q-21 -61 -49.5 -144t-58 -174t-56.5 -173t-45 -143q-25 -67 -1.5 -90t136.5 -21l-4 -16h-418l4 16q92 -1 125.5 24.5t51.5 86.5zM1446 652l-389 -368h270zM1343 0h-106l70 210h-320
l8 65l549 521h58l-164 -512h118l-24 -74h-119zM299 -29l938 1455h82l-934 -1455h-86z" />
    <glyph glyph-name="onehalf" unicode="&#xbd;" horiz-adv-x="1626" 
d="M1458 566q0 61 -40 107.5t-120 48.5q-58 0 -107.5 -28.5t-80.5 -78.5l-25 17q44 75 111 119t147 45q109 -2 171 -59t63 -142q0 -47 -26.5 -93t-86 -103.5t-153.5 -134.5t-230 -185h271q49 -1 85 17.5t58 64.5h29l-74 -161h-500q144 136 241 223t155.5 143.5t85 101.5
t26.5 98zM193 747l159 483q27 68 5.5 92.5t-148.5 5.5v21q127 23 203 45t92 24q12 0 11.5 -9t-7.5 -28q-21 -61 -49.5 -144t-58 -173t-56.5 -173t-45 -144q-21 -67 4.5 -90t130.5 -21l-4 -16h-418l4 16q92 -1 125.5 24.5t51.5 86.5zM1237 1426h82l-934 -1455h-82z" />
    <glyph glyph-name="threequarters" unicode="&#xbe;" horiz-adv-x="1626" 
d="M1446 652l-389 -368h274zM1343 0h-102l66 210h-320l8 65l549 521h58l-164 -512h118l-24 -74h-119zM303 -29l934 1455h82l-934 -1455h-82zM184 1279l-20 16q42 62 100 92.5t137 30.5q87 -1 137.5 -37.5t51.5 -101.5q-3 -76 -62 -122.5t-139 -70.5q64 -19 95.5 -65
t31.5 -111q-3 -116 -101 -209t-255 -98q-52 0 -111.5 18t-65.5 52q1 30 12 43.5t34 13.5q57 -6 91 -45t105 -45q84 5 134 71t51 138q2 74 -54 135.5t-192 65.5v20q138 9 227 55t92 129q-2 45 -39.5 75.5t-91.5 31.5q-35 1 -79.5 -18t-88.5 -64z" />
    <glyph glyph-name="questiondown" unicode="&#xbf;" horiz-adv-x="934" 
d="M492 239q0 40 21.5 64.5t64.5 25.5q54 -2 74.5 -34.5t19.5 -76.5q-3 -101 -89 -172t-218 -75q-151 2 -246.5 75t-98.5 209q3 133 76.5 220t175 162t191.5 174t127 259l45 -12q-29 -176 -97.5 -290t-146.5 -195.5t-133 -163.5t-57 -195q1 -81 48.5 -133.5t131.5 -54.5
q58 1 101.5 27.5t45.5 70.5q-2 35 -18 49.5t-18 65.5zM647 1201q-50 0 -84 29t-35 82q1 53 31.5 87.5t83.5 35.5q53 -2 85.5 -37.5t33.5 -85.5q-1 -50 -32.5 -80t-82.5 -31z" />
    <glyph glyph-name="Agrave" unicode="&#xc0;" horiz-adv-x="1405" 
d="M1245 30l-8 -30h-565l8 30q91 -4 135 29.5t49 146.5l13 270h-484q-25 -2 -39 -18.5t-14 -18.5l-197 -233q-79 -97 -47 -137t137 -39l-8 -30h-480l8 30q62 -2 125 29.5t138 121.5l1061 1254h41l-53 -1246q-3 -85 42.5 -122.5t137.5 -36.5zM434 550h447l20 557zM934 1750
q-17 13 -32.5 34.5t-16.5 43.5q0 26 15.5 47t49.5 22q20 0 42.5 -11t35.5 -29l217 -312h-65q-62 53 -124.5 106t-121.5 99z" />
    <glyph glyph-name="Aacute" unicode="&#xc1;" horiz-adv-x="1405" 
d="M1012 1545h-74l303 320q3 7 23 19t51 13q34 -1 51.5 -22t17.5 -47q-1 -21 -17.5 -38t-39.5 -32zM1245 30l-8 -30h-569l12 30q91 -4 135 29.5t49 146.5l13 270h-484q-25 -2 -39 -18.5t-14 -18.5l-197 -233q-79 -97 -47 -135.5t137 -36.5l-8 -34h-480l8 30q62 -2 125 29.5
t138 121.5l1065 1254h37l-53 -1246q-3 -85 42.5 -122.5t137.5 -36.5zM434 550h447l20 557z" />
    <glyph glyph-name="Acircumflex" unicode="&#xc2;" horiz-adv-x="1405" 
d="M1245 30l-8 -30h-565l8 30q91 -4 135 29.5t49 146.5l13 270h-484q-25 -2 -39 -18.5t-14 -18.5l-197 -233q-79 -97 -47 -137t137 -39l-8 -30h-480l8 30q62 -2 125 29.5t138 121.5l1061 1254h41l-53 -1246q-3 -85 42.5 -122.5t137.5 -36.5zM901 1107l-467 -557h447z
M1307 1537l-177 205l-274 -205h-65l307 344h102l160 -344h-53z" />
    <glyph glyph-name="Atilde" unicode="&#xc3;" horiz-adv-x="1405" 
d="M1233 1615q-59 4 -132.5 30.5t-125.5 30.5q-45 0 -63.5 -18t-34.5 -55h-46q13 91 56.5 135.5t111.5 44.5q68 -3 134 -26.5t133 -26.5q50 2 70 27t28 54h45q-9 -79 -54 -136t-122 -60zM1245 30l-8 -30h-569l12 30q91 -4 135 29.5t49 146.5l13 270h-484q-25 -2 -39 -18.5
t-14 -18.5l-197 -233q-79 -97 -47 -135.5t137 -36.5l-8 -34h-480l8 30q62 -2 125 29.5t138 121.5l1065 1254h37l-53 -1246q-3 -85 42.5 -122.5t137.5 -36.5zM901 1107l-467 -557h447z" />
    <glyph glyph-name="Adieresis" unicode="&#xc4;" horiz-adv-x="1405" 
d="M1196 1693q-1 30 21 61t73 33q52 -2 75.5 -33t23.5 -61q1 -30 -18.5 -63t-76.5 -36q-57 3 -78 36t-20 63zM946 1787q47 -2 70.5 -31.5t23.5 -62.5q1 -33 -18.5 -65t-71.5 -34q-52 2 -77 31.5t-25 67.5t26 65.5t72 28.5zM1065 189q-3 -85 42.5 -122.5t137.5 -36.5l-8 -30
h-569l12 30q91 -4 135 29.5t49 146.5l13 270h-484q-25 -2 -39 -18.5t-14 -18.5l-197 -233q-79 -97 -47 -135.5t137 -36.5l-8 -34h-480l8 30q62 -2 125 29.5t138 121.5l1065 1254h37zM901 1107l-467 -557h447z" />
    <glyph glyph-name="Aring" unicode="&#xc5;" horiz-adv-x="1405" 
d="M983 1721q1 -58 40.5 -105t111.5 -50q69 3 109 48t38 99q-4 53 -36.5 101t-110.5 51q-74 -2 -113 -44t-39 -100zM1245 30l-8 -30h-569l12 30q91 -4 135 29.5t49 146.5l13 270h-484q-25 -2 -39 -18.5t-14 -18.5l-197 -233q-79 -97 -47 -135.5t137 -36.5l-8 -34h-480l8 30
q62 -2 125 29.5t138 121.5l1065 1254h37l-53 -1246q-3 -85 42.5 -122.5t137.5 -36.5zM901 1107l-467 -557h447zM1135 1955q122 -6 178 -86t55 -160q0 -79 -57 -151.5t-176 -77.5q-123 4 -182.5 74.5t-59.5 154.5q0 88 59.5 164.5t182.5 81.5z" />
    <glyph glyph-name="AE" unicode="&#xc6;" horiz-adv-x="1954" 
d="M795 1201q76 96 48.5 133t-122.5 35l8 37h1135v-115l-37 -188h-41q13 127 -34.5 179t-203.5 50h-262q-62 3 -91 -22.5t-52 -112.5l-115 -414h201q131 -2 192 43.5t103 157.5h37l-140 -500h-37q26 141 -13.5 189t-158.5 45h-200l-144 -516q-17 -70 14.5 -102.5
t133.5 -32.5h147q200 -3 331 65.5t226 249.5h41l-147 -382h-1127l9 30q66 -3 106.5 30.5t69.5 141.5l86 303h-357q-49 0 -71 -14.5t-47 -47.5l-160 -196q-89 -114 -67.5 -167.5t116.5 -53.5l-4 -26h-394v30q60 5 113.5 62t90.5 106zM983 1316l-590 -737h385z" />
    <glyph glyph-name="Ccedilla" unicode="&#xc7;" horiz-adv-x="1430" 
d="M618 -369q58 1 86.5 23t28.5 67q1 42 -23 68.5t-79 26.5l-94 -13l53 172q-250 21 -380.5 174.5t-131.5 388.5q11 336 267.5 608.5t629.5 288.5q145 -4 207 -31t116 -31q30 1 46.5 15.5t27.5 33.5h41l-82 -413h-41q16 157 -58 258.5t-237 105.5q-282 -14 -478.5 -268.5
t-205.5 -587.5q-1 -177 96.5 -318t305.5 -149q144 1 266 68.5t229 185.5l41 -29q-76 -102 -215.5 -199t-382.5 -105l-24 -82l61 5q86 -1 131 -50t45 -123q-1 -76 -59 -120.5t-158 -46.5q-84 3 -158.5 27t-128.5 46l33 78q62 -36 120.5 -54.5t104.5 -19.5z" />
    <glyph glyph-name="Egrave" unicode="&#xc8;" horiz-adv-x="1380" 
d="M250 1365l8 41h1077l-57 -303h-33q3 149 -57.5 195t-220.5 42h-226q-62 2 -91 -25t-52 -114l-115 -418h189q143 -1 206.5 47t96.5 154h37l-140 -496h-32q12 117 -14 173.5t-158 56.5h-201l-139 -512q-23 -82 7.5 -113.5t135.5 -30.5h147q225 0 347 79.5t211 236.5h36
l-143 -378h-1168l8 34q108 0 152.5 41.5t65.5 130.5l266 995q23 83 -10 123.5t-133 40.5zM717 1750q-17 13 -32.5 34.5t-16.5 43.5q0 26 15.5 47t49.5 22q20 0 42.5 -11t35.5 -29l217 -312h-65q-62 53 -124.5 106t-121.5 99z" />
    <glyph glyph-name="Eacute" unicode="&#xc9;" horiz-adv-x="1380" 
d="M1339 1406l-61 -303h-33q3 149 -57.5 195t-220.5 42h-226q-62 2 -91 -25t-52 -114l-115 -418h189q143 -1 206.5 47t96.5 154h37l-140 -496h-32q12 117 -14 173.5t-158 56.5h-201l-139 -512q-23 -82 7.5 -113.5t135.5 -30.5h147q225 0 347 79.5t211 236.5h36l-143 -378
h-1168l4 34q108 0 154 41.5t68 130.5l266 995q22 83 -14 123.5t-137 40.5l12 41h1085zM795 1545h-74l303 320q3 7 23 19t51 13q34 -1 51.5 -22t17.5 -47q-1 -21 -17.5 -38t-39.5 -32z" />
    <glyph glyph-name="Ecircumflex" unicode="&#xca;" horiz-adv-x="1380" 
d="M258 1406h1077l-57 -303h-33q3 149 -57.5 195t-220.5 42h-226q-62 2 -91 -25t-52 -114l-115 -418h189q143 -1 206.5 47t96.5 154h37l-140 -496h-32q12 117 -14 173.5t-158 56.5h-201l-139 -512q-23 -82 7.5 -113.5t135.5 -30.5h147q225 0 347 79.5t211 236.5h36
l-143 -378h-1168l8 34q108 0 152.5 41.5t65.5 130.5l266 995q23 83 -10 123.5t-133 40.5zM1090 1537l-177 205l-274 -205h-66l308 344h102l160 -344h-53z" />
    <glyph glyph-name="Edieresis" unicode="&#xcb;" horiz-adv-x="1380" 
d="M250 1365l8 41h1077l-57 -303h-33q3 149 -57.5 195t-220.5 42h-226q-62 2 -91 -25t-52 -114l-115 -418h189q143 -1 206.5 47t96.5 154h37l-140 -496h-32q12 117 -14 173.5t-158 56.5h-201l-139 -512q-23 -82 7.5 -113.5t135.5 -30.5h147q225 0 347 79.5t211 236.5h36
l-143 -378h-1168l8 34q108 0 152.5 41.5t65.5 130.5l266 995q23 83 -10 123.5t-133 40.5zM979 1693q-1 30 21 61t73 33q52 -2 75 -33t23 -61q1 -30 -18 -63t-76 -36q-57 3 -78 36t-20 63zM729 1787q47 -2 70.5 -31.5t23.5 -62.5q1 -33 -18.5 -65t-71.5 -34q-52 2 -77 31.5
t-25 67.5t26 65.5t72 28.5z" />
    <glyph glyph-name="Igrave" unicode="&#xcc;" horiz-adv-x="745" 
d="M823 1365q-101 3 -147 -33t-74 -143l-262 -983q-24 -97 12.5 -135.5t126.5 -36.5l-4 -34h-566l8 34q91 -3 138 30.5t76 141.5l266 983q27 94 -3.5 135.5t-139.5 40.5l12 41h565zM451 1750q-17 13 -33 34.5t-17 43.5q0 26 16 47t50 22q20 0 42 -11t36 -29l217 -312h-66
q-62 53 -124.5 106t-120.5 99z" />
    <glyph glyph-name="Iacute" unicode="&#xcd;" horiz-adv-x="745" 
d="M602 1189l-262 -983q-24 -97 12.5 -135.5t126.5 -36.5l-4 -34h-566l8 34q91 -3 138 30.5t76 141.5l266 983q27 94 -3.5 135.5t-139.5 40.5l12 41h565l-8 -41q-101 3 -147 -33t-74 -143zM528 1545h-73l303 320q3 7 23 19t50 13q35 -1 52.5 -22t17.5 -47q-1 -21 -18 -38
t-39 -32z" />
    <glyph glyph-name="Icircumflex" unicode="&#xce;" horiz-adv-x="745" 
d="M602 1189l-262 -983q-24 -97 12.5 -135.5t126.5 -36.5l-4 -34h-566l8 34q91 -3 138 30.5t76 141.5l266 983q27 94 -3.5 135.5t-139.5 40.5l12 41h565l-8 -41q-101 3 -147 -33t-74 -143zM823 1537l-176 205l-274 -205h-66l307 344h103l160 -344h-54z" />
    <glyph glyph-name="Idieresis" unicode="&#xcf;" horiz-adv-x="745" 
d="M602 1189l-262 -983q-24 -97 12.5 -135.5t126.5 -36.5l-4 -34h-566l8 34q91 -3 138 30.5t76 141.5l266 983q27 94 -3.5 135.5t-139.5 40.5l12 41h565l-8 -41q-101 3 -147 -33t-74 -143zM713 1693q-1 30 20.5 61t73.5 33q52 -2 75 -33t23 -61q1 -30 -18 -63t-76 -36
q-57 3 -78 36t-20 63zM365 1693q0 38 25.5 65.5t72.5 28.5q46 -2 70 -31.5t24 -62.5q1 -33 -18.5 -65t-71.5 -34q-52 2 -77 31.5t-25 67.5z" />
    <glyph glyph-name="Eth" unicode="&#xd0;" horiz-adv-x="1540" 
d="M561 0h-669l9 34q110 -4 155 36.5t75 172.5l127 471h-259l9 65h266l123 447q21 76 -20.5 108t-134.5 31l8 41h545q285 0 469 -147.5t190 -442.5q-17 -371 -291 -591t-602 -225zM328 235q-29 -100 13 -137.5t175 -35.5q331 10 514.5 241.5t186.5 569.5q0 232 -115 351.5
t-340 120.5q-76 1 -113.5 -24.5t-54.5 -94.5l-119 -447h373l-17 -65h-372z" />
    <glyph glyph-name="Ntilde" unicode="&#xd1;" horiz-adv-x="1520" 
d="M1073 321l234 868q27 89 -2.5 132.5t-149.5 43.5l12 41h455l-4 -41q-105 1 -152 -36.5t-69 -131.5q-35 -132 -148.5 -549t-187.5 -681h-37l-561 1169l-250 -922q-28 -97 0.5 -139t151.5 -41l-5 -38h-459l4 38q110 0 154 44t68 136q14 51 51 188.5t81 302t81 299t49 177.5
q21 81 -18 133.5t-125 54.5l8 37h295zM1106 1615q-59 4 -132.5 30.5t-125.5 30.5q-45 0 -63.5 -18t-34.5 -55h-45q13 91 56 135.5t111 44.5q68 -3 134 -26.5t133 -26.5q50 2 70 27t28 54h45q-9 -79 -54 -136t-122 -60z" />
    <glyph glyph-name="Ograve" unicode="&#xd2;" horiz-adv-x="1569" 
d="M1139 1545q-62 53 -124.5 106t-121.5 99q-17 13 -32.5 34.5t-16.5 43.5q0 26 15.5 47t49.5 22q20 0 42.5 -11t35.5 -29l217 -312h-65zM66 488q10 334 266 630.5t635 316.5q270 -6 401.5 -155t130.5 -370q-5 -290 -243 -601t-646 -338q-300 10 -424 165.5t-120 351.5z
M975 1377q-306 -25 -490.5 -341.5t-189.5 -620.5q-4 -156 66.5 -270t256.5 -119q313 31 483.5 368.5t172.5 605.5q1 158 -70 265.5t-229 111.5z" />
    <glyph glyph-name="Oacute" unicode="&#xd3;" horiz-adv-x="1569" 
d="M971 1545h-74l303 320q3 7 23 19t51 13q34 -1 51.5 -22t17.5 -47q-1 -21 -17.5 -38t-39.5 -32zM66 488q10 334 266 630.5t635 316.5q270 -6 401.5 -155t130.5 -370q-5 -290 -243 -601t-646 -338q-300 10 -424 165.5t-120 351.5zM975 1377q-306 -25 -490.5 -341.5
t-189.5 -620.5q-4 -156 66.5 -270t256.5 -119q313 31 483.5 368.5t172.5 605.5q1 158 -70 265.5t-229 111.5z" />
    <glyph glyph-name="Ocircumflex" unicode="&#xd4;" horiz-adv-x="1569" 
d="M1266 1537l-176 205l-275 -205h-65l307 344h102l160 -344h-53zM66 488q10 334 266 630.5t635 316.5q270 -6 401.5 -155t130.5 -370q-5 -290 -243 -601t-646 -338q-300 10 -424 165.5t-120 351.5zM975 1377q-306 -25 -490.5 -341.5t-189.5 -620.5q-4 -156 66.5 -270
t256.5 -119q313 31 483.5 368.5t172.5 605.5q1 158 -70 265.5t-229 111.5z" />
    <glyph glyph-name="Otilde" unicode="&#xd5;" horiz-adv-x="1569" 
d="M1192 1615q-59 4 -132.5 30.5t-125.5 30.5q-45 0 -63.5 -18t-34.5 -55h-45q13 91 56 135.5t111 44.5q68 -3 134 -26.5t133 -26.5q50 2 70 27t28 54h45q-9 -79 -54 -136t-122 -60zM967 1435q270 -6 401.5 -155t130.5 -370q-5 -290 -243 -601t-646 -338q-300 10 -424 165.5
t-120 351.5q10 334 266 630.5t635 316.5zM975 1377q-306 -25 -490.5 -341.5t-189.5 -620.5q-4 -156 66.5 -270t256.5 -119q313 31 483.5 368.5t172.5 605.5q1 158 -70 265.5t-229 111.5z" />
    <glyph glyph-name="Odieresis" unicode="&#xd6;" horiz-adv-x="1569" 
d="M1155 1693q-1 30 21 61t73 33q52 -2 75.5 -33t23.5 -61q1 -30 -18.5 -63t-76.5 -36q-57 3 -78 36t-20 63zM807 1693q0 38 26 65.5t72 28.5q47 -2 70.5 -31.5t23.5 -62.5q1 -33 -18.5 -65t-71.5 -34q-52 2 -77 31.5t-25 67.5zM66 488q10 334 266 630.5t635 316.5
q270 -6 401.5 -155t130.5 -370q-5 -290 -243 -601t-646 -338q-300 10 -424 165.5t-120 351.5zM975 1377q-306 -25 -490.5 -341.5t-189.5 -620.5q-4 -156 66.5 -270t256.5 -119q313 31 483.5 368.5t172.5 605.5q1 158 -70 265.5t-229 111.5z" />
    <glyph glyph-name="multiply" unicode="&#xd7;" horiz-adv-x="1700" 
d="M385 1168l471 -471l471 471l94 -94l-471 -471l471 -471l-94 -94l-471 471l-471 -471l-94 94l471 471l-471 471z" />
    <glyph glyph-name="Oslash" unicode="&#xd8;" horiz-adv-x="1569" 
d="M971 1435q75 -1 125 -13t92 -28l110 155h91l-123 -188q103 -68 167 -178.5t66 -263.5q-12 -328 -269.5 -627t-611.5 -321q-79 1 -140.5 10.5t-112.5 27.5l-148 -218h-94l176 255q-98 63 -164 168t-69 266q12 331 274.5 632.5t630.5 322.5zM971 1377q-311 -26 -491.5 -347
t-184.5 -623q-1 -101 14.5 -153.5t55.5 -100.5l778 1171q-43 28 -86 40.5t-86 12.5zM1274 992q-1 85 -15.5 148.5t-62.5 126.5l-778 -1176q44 -39 91.5 -54.5t88.5 -14.5q332 31 503.5 367t172.5 603z" />
    <glyph glyph-name="Ugrave" unicode="&#xd9;" horiz-adv-x="1495" 
d="M578 1209q-13 -41 -36.5 -128t-53 -196.5t-58.5 -219t-49 -197.5q-46 -173 14 -287.5t269 -118.5q171 1 278.5 106t159.5 300q24 98 48 185t46.5 166t43 151.5t38.5 140.5q39 137 10 198t-153 60l8 37h471q0 -10 -3.5 -23t-4.5 -14q-101 6 -147 -38t-91 -216
q-25 -86 -45 -158.5t-39.5 -142.5t-41 -152.5t-50.5 -193.5q-52 -225 -180.5 -359t-405.5 -138q-210 0 -350.5 121.5t-83.5 375.5q33 129 64.5 244.5t57 213t46 170t33.5 113.5q23 83 -13 121.5t-151 38.5l8 37h594l-12 -37q-100 0 -150.5 -40t-70.5 -120zM1098 1545
q-62 53 -124.5 106t-121.5 99q-17 13 -32.5 34.5t-16.5 43.5q0 26 15.5 47t49.5 22q20 0 42.5 -11t35.5 -29l217 -312h-65z" />
    <glyph glyph-name="Uacute" unicode="&#xda;" horiz-adv-x="1495" 
d="M578 1209q-13 -41 -36.5 -128t-53 -196.5t-58.5 -219t-49 -197.5q-46 -173 14 -287.5t269 -118.5q171 1 278.5 106t159.5 300q24 98 48 185t46.5 166t43 151.5t38.5 140.5q39 137 10 198t-153 60l8 37h471q0 -10 -3.5 -23t-4.5 -14q-101 6 -147 -38t-91 -216
q-25 -86 -45 -158.5t-39.5 -142.5t-41 -152.5t-50.5 -193.5q-52 -225 -180.5 -359t-405.5 -138q-210 0 -350.5 121.5t-83.5 375.5q33 129 64.5 244.5t57 213t46 170t33.5 113.5q23 83 -13 121.5t-151 38.5l8 37h594l-12 -37q-100 0 -150.5 -40t-70.5 -120zM930 1545h-74
l303 320q3 7 23 19t51 13q34 -1 52 -22t18 -47q-1 -21 -18 -38t-40 -32z" />
    <glyph glyph-name="Ucircumflex" unicode="&#xdb;" horiz-adv-x="1495" 
d="M578 1209q-13 -41 -36.5 -128t-53 -196.5t-58.5 -219t-49 -197.5q-46 -173 14 -287.5t269 -118.5q171 1 278.5 106t159.5 300q24 98 48 185t46.5 166t43 151.5t38.5 140.5q39 137 10 198t-153 60l8 37h471q0 -10 -3.5 -23t-4.5 -14q-101 6 -147 -38t-91 -216
q-25 -86 -45 -158.5t-39.5 -142.5t-41 -152.5t-50.5 -193.5q-52 -225 -180.5 -359t-405.5 -138q-210 0 -350.5 121.5t-83.5 375.5q33 129 64.5 244.5t57 213t46 170t33.5 113.5q23 83 -13 121.5t-151 38.5l8 37h594l-12 -37q-100 0 -150.5 -40t-70.5 -120zM1225 1537
l-176 205l-275 -205h-65l307 344h102l160 -344h-53z" />
    <glyph glyph-name="Udieresis" unicode="&#xdc;" horiz-adv-x="1495" 
d="M1208 1787q52 -2 75.5 -33t23.5 -61q1 -30 -18.5 -63t-76.5 -36q-57 3 -78 36t-20 63q-1 30 21 61t73 33zM864 1787q47 -2 70.5 -31.5t23.5 -62.5q1 -33 -18.5 -65t-71.5 -34q-52 2 -77 31.5t-25 67.5t26 65.5t72 28.5zM578 1209q-13 -41 -36.5 -128t-53 -196.5
t-58.5 -219t-49 -197.5q-46 -173 14 -287.5t269 -118.5q171 1 278.5 106t159.5 300q24 98 48 185t46.5 166t43 151.5t38.5 140.5q39 137 10 198t-153 60l8 37h471q0 -10 -3.5 -23t-4.5 -14q-101 6 -147 -38t-91 -216q-25 -86 -45 -158.5t-39.5 -142.5t-41 -152.5
t-50.5 -193.5q-52 -225 -180.5 -359t-405.5 -138q-210 0 -350.5 121.5t-83.5 375.5q33 129 64.5 244.5t57 213t46 170t33.5 113.5q23 83 -13 121.5t-151 38.5l8 37h594l-12 -37q-100 0 -150.5 -40t-70.5 -120z" />
    <glyph glyph-name="Yacute" unicode="&#xdd;" horiz-adv-x="1253" 
d="M979 1369l8 37h483l-12 -41q-48 0 -109 -46t-141 -138q-43 -47 -107.5 -120t-137 -157t-140 -160.5t-114.5 -132.5q-21 -70 -45.5 -163t-57.5 -218q-39 -123 -13.5 -163t185.5 -37l-8 -30h-623l9 30q97 -2 151 24.5t78 110.5q26 93 61 221t58 217q-21 58 -49.5 135.5
t-60.5 161.5t-58.5 159t-44.5 126q-36 100 -96 140.5t-154 39.5q1 10 4.5 25t3.5 16h610q-1 -2 -6 -17t-6 -20q-121 1 -151.5 -43t8.5 -141q18 -49 40.5 -112.5t48 -130t48.5 -128t39 -108.5q39 47 92 109.5t111.5 129t115 129t99.5 111.5q79 97 37 141t-156 43zM782 1545
h-73l303 320q3 7 22.5 19t50.5 13q34 -1 52 -22t18 -47q-1 -21 -18 -38t-39 -32z" />
    <glyph glyph-name="Thorn" unicode="&#xde;" horiz-adv-x="1212" 
d="M1147 783q-5 -175 -156 -280.5t-389 -108.5h-201q-18 1 -27.5 -8t-13.5 -33l-41 -147q-27 -97 6 -135.5t162 -36.5l-8 -34h-578l8 34q102 -1 147 38.5t67 133.5q57 203 137 503t133 509q19 79 -16.5 113.5t-130.5 33.5l8 41h561l-16 -41q-110 0 -151 -36t-58 -107
l-25 -86q-3 -30 6.5 -42t34.5 -12h144q197 0 297 -75.5t100 -223.5zM516 943l-115 -430q-11 -39 6 -50.5t80 -10.5q237 4 337.5 102t97.5 246q1 92 -54 157t-180 68q-95 1 -129 -16.5t-43 -65.5z" />
    <glyph glyph-name="germandbls" unicode="&#xdf;" horiz-adv-x="1085" 
d="M4 -229q37 213 68.5 441.5t74.5 447t111 394.5t176 282q39 44 109 86t174 45q141 -3 208 -80.5t66 -197.5q-2 -129 -90 -230t-237 -135q118 -30 189 -102.5t73 -228.5q-4 -194 -123 -352.5t-307 -169.5q-87 2 -135.5 39t-49.5 93q0 41 24 65.5t71 25.5q37 0 57 -18
t20 -52q-5 -39 -14.5 -74t43.5 -37q115 17 176 202t62 331q3 91 -48 168t-186 82l8 41q140 5 220.5 118.5t82.5 278.5q1 78 -28 128t-99 52q-86 -2 -147 -70.5t-100 -165t-59.5 -181.5t-24.5 -119q-25 -107 -56.5 -252.5t-67.5 -303t-71 -302.5t-63 -253
q-54 -143 -112.5 -188t-134.5 -42q-71 4 -91.5 38t-19.5 60q2 50 24.5 69t53.5 17q22 1 44 -16t17 -49q0 -22 -8 -43t29 -23q44 5 65.5 62t25.5 119z" />
    <glyph glyph-name="agrave" unicode="&#xe0;" horiz-adv-x="1040" 
d="M705 1070q-62 53 -124.5 105.5t-121.5 99.5q-17 13 -32.5 34.5t-16.5 43.5q0 25 15.5 46.5t49.5 22.5q20 0 42.5 -11t35.5 -30l217 -311h-65zM885 927l-217 -787q-2 -18 10 -27.5t31 -9.5q29 3 70.5 45.5t76.5 94.5l29 -29q-46 -66 -126.5 -146t-168.5 -88q-43 1 -61 26
t-17 69q1 52 19.5 123.5t46.5 154.5q-83 -147 -190 -256.5t-236 -116.5q-94 3 -131.5 66t-37.5 160q8 235 171 478.5t403 262.5q67 -1 101.5 -29t46.5 -77l28 86h152zM557 898q-159 -18 -275 -241t-122 -435q0 -48 19 -86.5t59 -40.5q172 29 296 286.5t130 393.5
q1 48 -24 84.5t-83 38.5z" />
    <glyph glyph-name="aacute" unicode="&#xe1;" horiz-adv-x="1040" 
d="M885 927l-217 -787q-2 -18 10 -27.5t31 -9.5q29 3 70.5 45.5t76.5 94.5l29 -29q-46 -66 -126.5 -146t-168.5 -88q-43 1 -61 26t-17 69q1 52 19.5 123.5t46.5 154.5q-83 -147 -190 -256.5t-236 -116.5q-94 3 -131.5 66t-37.5 160q8 235 171 478.5t403 262.5
q67 -1 101.5 -29t46.5 -77l28 86h152zM557 898q-159 -18 -275 -241t-122 -435q0 -48 19 -86.5t59 -40.5q172 29 296 286.5t130 393.5q1 48 -24 84.5t-83 38.5zM537 1070h-74l303 320q3 7 23 19t51 13q34 -1 51.5 -22.5t17.5 -46.5q-1 -21 -17.5 -38t-39.5 -32z" />
    <glyph glyph-name="acircumflex" unicode="&#xe2;" horiz-adv-x="1040" 
d="M733 927h152l-217 -787q-2 -18 10 -27.5t31 -9.5q29 3 70.5 45.5t76.5 94.5l29 -29q-46 -66 -126.5 -146t-168.5 -88q-43 1 -61 26t-17 69q1 52 19.5 123.5t46.5 154.5q-83 -147 -190 -256.5t-236 -116.5q-94 3 -131.5 66t-37.5 160q8 235 171 478.5t403 262.5
q67 -1 101.5 -29t46.5 -77zM557 898q-159 -18 -275 -241t-122 -435q0 -48 19 -86.5t59 -40.5q172 29 296 286.5t130 393.5q1 48 -24 84.5t-83 38.5zM831 1062l-176 205l-274 -205h-66l308 344h102l160 -344h-54z" />
    <glyph glyph-name="atilde" unicode="&#xe3;" horiz-adv-x="1040" 
d="M758 1140q-59 4 -132.5 30.5t-125.5 30.5q-45 0 -63.5 -18.5t-35.5 -55.5h-45q13 92 56.5 136.5t111.5 44.5q67 -3 133 -27t134 -27q50 2 70 27.5t28 54.5h45q-9 -79 -54 -136t-122 -60zM733 927h152l-217 -787q-2 -18 10 -27.5t31 -9.5q29 3 70.5 45.5t76.5 94.5l29 -29
q-46 -66 -126.5 -146t-168.5 -88q-43 1 -61 26t-17 69q1 52 19.5 123.5t46.5 154.5q-83 -147 -190 -256.5t-236 -116.5q-94 3 -131.5 66t-37.5 160q8 235 171 478.5t403 262.5q67 -1 101.5 -29t46.5 -77zM557 898q-159 -18 -275 -241t-122 -435q0 -48 19 -86.5t59 -40.5
q172 29 296 286.5t130 393.5q1 48 -24 84.5t-83 38.5z" />
    <glyph glyph-name="adieresis" unicode="&#xe4;" horiz-adv-x="1040" 
d="M721 1213q-1 30 20.5 61.5t73.5 33.5q52 -2 75 -33.5t23 -61.5q1 -30 -18 -62.5t-76 -35.5q-57 3 -78 35.5t-20 62.5zM471 1308q46 -2 70 -32t24 -63q1 -32 -18.5 -64t-71.5 -34q-52 2 -77 31t-25 67q0 39 26 66.5t72 28.5zM733 927h152l-217 -787q-2 -18 10 -27.5
t31 -9.5q29 3 70.5 45.5t76.5 94.5l29 -29q-46 -66 -126.5 -146t-168.5 -88q-43 1 -61 26t-17 69q1 52 19.5 123.5t46.5 154.5q-83 -147 -190 -256.5t-236 -116.5q-94 3 -131.5 66t-37.5 160q8 235 171 478.5t403 262.5q67 -1 101.5 -29t46.5 -77zM557 898
q-159 -18 -275 -241t-122 -435q0 -48 19 -86.5t59 -40.5q172 29 296 286.5t130 393.5q1 48 -24 84.5t-83 38.5z" />
    <glyph glyph-name="aring" unicode="&#xe5;" horiz-adv-x="1040" 
d="M885 927l-217 -787q-2 -18 10 -27.5t31 -9.5q29 3 70.5 45.5t76.5 94.5l29 -29q-46 -66 -126.5 -146t-168.5 -88q-43 1 -61 26t-17 69q1 52 19.5 123.5t46.5 154.5q-83 -147 -190 -256.5t-236 -116.5q-94 3 -131.5 66t-37.5 160q8 235 171 478.5t403 262.5
q67 -1 101.5 -29t46.5 -77l28 86h152zM639 1439q-74 -3 -114.5 -48.5t-41.5 -103.5q-1 -52 35.5 -98t116.5 -49q79 3 115.5 47t35.5 96q0 58 -36.5 105.5t-110.5 50.5zM635 1046q-122 6 -180 82.5t-58 158.5t61 157.5t181 80.5q125 -7 182 -87.5t56 -154.5q1 -74 -58 -152.5
t-184 -84.5zM664 775q1 48 -24 84.5t-83 38.5q-159 -18 -275 -241t-122 -435q0 -48 19 -86.5t59 -40.5q172 29 296 286.5t130 393.5z" />
    <glyph glyph-name="ae" unicode="&#xe6;" horiz-adv-x="1466" 
d="M582 361q-75 -133 -183.5 -252.5t-246.5 -128.5q-94 3 -131.5 64t-37.5 158q8 240 171 483t403 262q67 -1 101.5 -29t46.5 -77l28 86h152l-29 -111q52 46 140 89t188 46q92 -1 140 -43t48 -116q-13 -158 -201 -253t-397 -112q-3 -43 -7.5 -83.5t-4.5 -68.5q1 -99 50 -153
t130 -55q94 3 180 56.5t140 115.5l28 -29q-56 -79 -162 -151.5t-243 -78.5q-169 0 -242.5 92.5t-60.5 288.5zM557 898q-162 -18 -277 -241t-120 -435q0 -40 19 -82t59 -45q46 1 82.5 21.5t64.5 52.5q136 155 207 319.5t72 282.5q1 43 -21.5 83.5t-85.5 43.5zM1212 812
q3 35 -15.5 60t-49.5 26q-130 -13 -234.5 -157.5t-130.5 -268.5q191 24 309 116.5t121 223.5z" />
    <glyph glyph-name="ccedilla" unicode="&#xe7;" horiz-adv-x="909" 
d="M709 681q-49 1 -68 23.5t-18 54.5q3 40 22.5 61t22.5 49q-3 16 -20.5 22.5t-45.5 6.5q-191 -14 -307 -206t-119 -388q1 -99 52.5 -171t144.5 -75q91 4 178.5 60t144.5 121l29 -33q-78 -98 -189 -166.5t-233 -72.5l-24 -78l61 5q84 -1 129.5 -50t46.5 -123
q-2 -82 -62.5 -124t-154.5 -43q-72 2 -149.5 25t-137.5 48l33 78q57 -33 117.5 -53t107.5 -21q58 1 86.5 23t28.5 67t-24 70t-78 25l-95 -13l54 172q-123 23 -182.5 113.5t-59.5 207.5q7 253 177 447t425 204q110 -2 158 -45.5t47 -109.5q0 -55 -24.5 -83t-73.5 -28z" />
    <glyph glyph-name="egrave" unicode="&#xe8;" horiz-adv-x="872" 
d="M664 1070q-62 53 -124.5 105.5t-121.5 99.5q-17 13 -32.5 34.5t-16.5 43.5q0 25 15.5 46.5t49.5 22.5q20 0 42.5 -11t35.5 -30l217 -311h-65zM-9 267q10 266 190 467.5t417 212.5q95 -1 138 -44.5t42 -115.5q-9 -153 -185.5 -246.5t-412.5 -121.5l-12 -135
q-2 -89 38.5 -154t145.5 -68q89 3 175 53.5t141 114.5l28 -28q-59 -79 -164.5 -152t-252.5 -79q-145 4 -216 85.5t-72 210.5zM193 464q212 35 318.5 128.5t106.5 227.5q0 32 -18 52.5t-55 21.5q-123 -14 -228.5 -164.5t-123.5 -265.5z" />
    <glyph glyph-name="eacute" unicode="&#xe9;" horiz-adv-x="872" 
d="M496 1070h-74l303 320q3 7 23 19t51 13q34 -1 51.5 -22.5t17.5 -46.5q-1 -21 -17.5 -38t-39.5 -32zM-9 267q10 266 190 467.5t417 212.5q95 -1 138 -44.5t42 -115.5q-9 -153 -185.5 -246.5t-412.5 -121.5l-12 -135q-2 -89 38.5 -154t145.5 -68q89 3 175 53.5t141 114.5
l28 -28q-59 -79 -164.5 -152t-252.5 -79q-145 4 -216 85.5t-72 210.5zM618 820q0 32 -18 52.5t-55 21.5q-123 -14 -228.5 -164.5t-123.5 -265.5q212 35 318.5 128.5t106.5 227.5z" />
    <glyph glyph-name="ecircumflex" unicode="&#xea;" horiz-adv-x="872" 
d="M791 1062l-177 205l-274 -205h-66l308 344h102l160 -344h-53zM279 -29q-145 4 -216 85.5t-72 210.5q10 266 190 467.5t417 212.5q95 -1 138 -44.5t42 -115.5q-9 -153 -185.5 -246.5t-412.5 -121.5l-12 -135q-2 -89 38.5 -154t145.5 -68q89 3 175 53.5t141 114.5l28 -28
q-59 -79 -164.5 -152t-252.5 -79zM193 464q212 35 318.5 128.5t106.5 227.5q0 32 -18 52.5t-55 21.5q-123 -14 -228.5 -164.5t-123.5 -265.5z" />
    <glyph glyph-name="edieresis" unicode="&#xeb;" horiz-adv-x="872" 
d="M680 1218q-1 30 21 61t73 33q52 -2 75 -33t23 -61q1 -30 -18 -63t-76 -36q-57 3 -78 36t-20 63zM332 1218q0 38 26 65.5t72 28.5q47 -2 70.5 -31.5t23.5 -62.5q1 -33 -18.5 -65t-71.5 -34q-52 2 -77 31t-25 68zM279 -29q-145 4 -216 85.5t-72 210.5q10 266 190 467.5
t417 212.5q95 -1 138 -44.5t42 -115.5q-9 -153 -185.5 -246.5t-412.5 -121.5l-12 -135q-2 -89 38.5 -154t145.5 -68q89 3 175 53.5t141 114.5l28 -28q-59 -79 -164.5 -152t-252.5 -79zM618 820q0 32 -18 52.5t-55 21.5q-123 -14 -228.5 -164.5t-123.5 -265.5
q212 35 318.5 128.5t106.5 227.5z" />
    <glyph glyph-name="igrave" unicode="&#xec;" horiz-adv-x="537" 
d="M410 1070q-62 53 -124.5 105.5t-121.5 99.5q-17 13 -32.5 34.5t-16.5 43.5q0 25 15.5 46.5t49.5 22.5q20 0 42.5 -11t35.5 -30l217 -311h-65zM61 898q165 14 231 30.5t81 18.5q12 0 14.5 -8.5t1.5 -24.5q-2 -14 -34.5 -123.5t-75.5 -252t-75 -259t-32 -147.5
q1 -16 13.5 -31.5t31.5 -13.5q42 5 92.5 58t83.5 98l29 -29q-49 -72 -135 -153.5t-181 -89.5q-73 2 -89 40t-13 101q0 18 17.5 92t45 170t54 188t43.5 148q27 84 6 118t-117 33z" />
    <glyph glyph-name="iacute" unicode="&#xed;" horiz-adv-x="537" 
d="M61 898q165 14 231 30.5t81 18.5q12 0 14.5 -8.5t1.5 -24.5q-2 -14 -34.5 -123.5t-75.5 -252t-75 -259t-32 -147.5q1 -16 13.5 -31.5t31.5 -13.5q42 5 92.5 58t83.5 98l29 -29q-49 -72 -135 -153.5t-181 -89.5q-73 2 -89 40t-13 101q0 18 17.5 92t45 170t54 188t43.5 148
q27 84 6 118t-117 33zM242 1070h-74l303 320q3 7 23 19t51 13q34 -1 51.5 -22.5t17.5 -46.5q-1 -21 -17.5 -38t-39.5 -32z" />
    <glyph glyph-name="icircumflex" unicode="&#xee;" horiz-adv-x="537" 
d="M61 898q165 14 231 30.5t81 18.5q12 0 14.5 -8.5t1.5 -24.5q-2 -14 -34.5 -123.5t-75.5 -252t-75 -259t-32 -147.5q1 -16 13.5 -31.5t31.5 -13.5q42 5 92.5 58t83.5 98l29 -29q-49 -72 -135 -153.5t-181 -89.5q-73 2 -89 40t-13 101q0 18 17.5 92t45 170t54 188t43.5 148
q27 84 6 118t-117 33zM537 1062l-177 205l-274 -205h-66l308 344h102l160 -344h-53z" />
    <glyph glyph-name="idieresis" unicode="&#xef;" horiz-adv-x="537" 
d="M426 1218q-1 30 21 61t73 33q52 -2 75 -33t23 -61q1 -30 -18 -63t-76 -36q-57 3 -78 36t-20 63zM176 1312q47 -2 70.5 -31.5t23.5 -62.5q1 -33 -18.5 -65t-71.5 -34q-52 2 -77 31t-25 68q0 38 26 65.5t72 28.5zM373 947q12 0 14.5 -8.5t1.5 -24.5q-2 -14 -34.5 -123.5
t-75.5 -252t-75 -259t-32 -147.5q1 -16 13.5 -31.5t31.5 -13.5q42 5 92.5 58t83.5 98l29 -29q-49 -72 -135 -153.5t-181 -89.5q-73 2 -89 40t-13 101q0 18 17.5 92t45 170t54 188t43.5 148q27 84 6 118t-117 33l8 37q165 14 231 30.5t81 18.5z" />
    <glyph glyph-name="eth" unicode="&#xf0;" horiz-adv-x="1081" 
d="M-9 300q9 231 193 432.5t439 214.5q22 0 56 -5.5t62 -14.5q-10 66 -37.5 120.5t-64.5 108.5l-324 -160l-24 54l311 151l-196 246l32 25q56 -47 129 -113t125 -113l328 160l20 -49l-299 -156q70 -74 139 -205.5t74 -310.5q-2 -265 -164.5 -482.5t-465.5 -231.5
q-150 0 -240 79t-93 250zM164 247q0 -100 43.5 -161.5t132.5 -63.5q223 21 329 249.5t105 409.5q2 86 -35.5 150t-136.5 67q-175 -14 -303.5 -219.5t-134.5 -431.5z" />
    <glyph glyph-name="eth" unicode="&#x111;" horiz-adv-x="1081" 
d="M-9 300q9 231 193 432.5t439 214.5q22 0 56 -5.5t62 -14.5q-10 66 -37.5 120.5t-64.5 108.5l-324 -160l-24 54l311 151l-196 246l32 25q56 -47 129 -113t125 -113l328 160l20 -49l-299 -156q70 -74 139 -205.5t74 -310.5q-2 -265 -164.5 -482.5t-465.5 -231.5
q-150 0 -240 79t-93 250zM164 247q0 -100 43.5 -161.5t132.5 -63.5q223 21 329 249.5t105 409.5q2 86 -35.5 150t-136.5 67q-175 -14 -303.5 -219.5t-134.5 -431.5z" />
    <glyph glyph-name="ntilde" unicode="&#xf1;" horiz-adv-x="1106" 
d="M758 1140q-59 4 -132.5 30.5t-125.5 30.5q-45 0 -63.5 -18.5t-35.5 -55.5h-45q13 92 56.5 136.5t111.5 44.5q67 -3 133 -27t134 -27q50 2 70 27.5t28 54.5h45q-9 -79 -54 -136t-122 -60zM573 75q0 39 25 138t56.5 217t56 211t26.5 122q0 25 -14.5 42.5t-42.5 18.5
q-54 -2 -107 -41.5t-94 -85.5q-154 -167 -226.5 -327t-125.5 -374h-161l210 726q25 78 -5 109t-122 30l12 37q171 14 236.5 32.5t79.5 20.5q16 0 22.5 -9t-2.5 -28l-114 -385q84 129 225.5 268t290.5 150q158 -1 103.5 -199t-157.5 -583q-6 -26 5 -47.5t32 -22.5q45 5 90 62
t74 110l33 -20q-72 -127 -144 -200.5t-163 -75.5q-52 2 -75.5 29.5t-23.5 74.5z" />
    <glyph glyph-name="ograve" unicode="&#xf2;" horiz-adv-x="1065" 
d="M729 1070q-62 53 -124.5 105.5t-121.5 99.5q-16 13 -32 34.5t-17 43.5q0 25 16 46.5t50 22.5q19 0 41.5 -11t36.5 -30l217 -311h-66zM618 947q161 -4 246 -101.5t86 -234.5q-8 -222 -188 -423.5t-443 -216.5q-160 4 -243 94.5t-85 234.5q11 242 201.5 438.5t425.5 208.5z
M602 890q-202 -19 -319 -242.5t-119 -421.5q0 -77 43.5 -137t132.5 -63q196 21 313.5 249.5t120.5 409.5q0 88 -43 145.5t-129 59.5z" />
    <glyph glyph-name="oacute" unicode="&#xf3;" horiz-adv-x="1065" 
d="M618 947q161 -4 246 -101.5t86 -234.5q-8 -222 -188 -423.5t-443 -216.5q-160 4 -243 94.5t-85 234.5q11 242 201.5 438.5t425.5 208.5zM602 890q-202 -19 -319 -242.5t-119 -421.5q0 -77 43.5 -137t132.5 -63q196 21 313.5 249.5t120.5 409.5q0 88 -43 145.5t-129 59.5z
M561 1070h-74l304 320q3 7 22.5 19t50.5 13q34 -1 52 -22.5t18 -46.5q-1 -21 -18 -38t-39 -32z" />
    <glyph glyph-name="ocircumflex" unicode="&#xf4;" horiz-adv-x="1065" 
d="M618 947q161 -4 246 -101.5t86 -234.5q-8 -222 -188 -423.5t-443 -216.5q-160 4 -243 94.5t-85 234.5q11 242 201.5 438.5t425.5 208.5zM602 890q-202 -19 -319 -242.5t-119 -421.5q0 -77 43.5 -137t132.5 -63q196 21 313.5 249.5t120.5 409.5q0 88 -43 145.5t-129 59.5z
M856 1062l-176 205l-274 -205h-66l307 344h103l159 -344h-53z" />
    <glyph glyph-name="otilde" unicode="&#xf5;" horiz-adv-x="1065" 
d="M958 1336q-9 -79 -54 -136t-122 -60q-58 4 -131.5 30.5t-126.5 30.5q-44 0 -62.5 -18.5t-35.5 -55.5h-45q13 92 56.5 136.5t111.5 44.5q67 -3 133 -27t133 -27q51 2 71 27.5t27 54.5h45zM618 947q161 -4 246 -101.5t86 -234.5q-8 -222 -188 -423.5t-443 -216.5
q-160 4 -243 94.5t-85 234.5q11 242 201.5 438.5t425.5 208.5zM602 890q-202 -19 -319 -242.5t-119 -421.5q0 -77 43.5 -137t132.5 -63q196 21 313.5 249.5t120.5 409.5q0 88 -43 145.5t-129 59.5z" />
    <glyph glyph-name="odieresis" unicode="&#xf6;" horiz-adv-x="1065" 
d="M745 1218q-1 30 21 61t74 33q51 -2 74.5 -33t23.5 -61q1 -30 -18 -63t-76 -36q-57 3 -78.5 36t-20.5 63zM496 1312q46 -2 70 -31.5t24 -62.5q1 -33 -19 -65t-71 -34q-52 2 -77.5 31t-25.5 68q0 38 26 65.5t73 28.5zM618 947q161 -4 246 -101.5t86 -234.5
q-8 -222 -188 -423.5t-443 -216.5q-160 4 -243 94.5t-85 234.5q11 242 201.5 438.5t425.5 208.5zM602 890q-202 -19 -319 -242.5t-119 -421.5q0 -77 43.5 -137t132.5 -63q196 21 313.5 249.5t120.5 409.5q0 88 -43 145.5t-129 59.5z" />
    <glyph glyph-name="divide" unicode="&#xf7;" horiz-adv-x="1700" 
d="M254 669h1188v-135h-1188v135zM725 968q2 50 37 85.5t86 37.5q50 -2 85.5 -37.5t37.5 -85.5q-2 -51 -37.5 -86t-85.5 -37q-51 2 -86 37t-37 86zM725 235q2 50 37 85t86 37q50 -2 85.5 -37t37.5 -85q-2 -51 -37.5 -86t-85.5 -37q-51 2 -86 37t-37 86z" />
    <glyph glyph-name="oslash" unicode="&#xf8;" horiz-adv-x="1065" 
d="M758 927q95 -42 143.5 -124t48.5 -188q-11 -236 -199 -433.5t-423 -210.5q-25 1 -46.5 3.5t-39.5 5.5l-136 -250h-77l143 271q-97 51 -139 125t-42 186q9 231 189.5 430.5t425.5 212.5q22 0 40.5 -2.5t37.5 -5.5l127 226h74zM156 235q0 -63 14 -99t47 -57l438 807l-69 12
q-178 -18 -301.5 -237t-128.5 -426zM721 853l-447 -811q18 -9 36 -14.5t42 -5.5q186 22 306 257t124 414q1 43 -10.5 83t-50.5 77z" />
    <glyph glyph-name="ugrave" unicode="&#xf9;" horiz-adv-x="1106" 
d="M700 1070q-62 53 -124.5 105.5t-120.5 99.5q-17 13 -32.5 34.5t-16.5 43.5q0 25 15.5 46.5t49.5 22.5q20 0 42 -11t36 -30l217 -311h-66zM381 910l-193 -675q-16 -65 1 -98.5t49 -33.5q118 9 297 243.5t260 584.5h159l-204 -750q-2 -34 3 -53.5t38 -19.5q50 5 98 58.5
t74 92.5l24 -24q-52 -83 -129.5 -163.5t-181.5 -87.5q-67 3 -88.5 49.5t-5.5 110.5l86 324q-120 -189 -250.5 -330.5t-274.5 -149.5q-93 5 -115.5 79t1.5 168l127 466q26 89 2.5 129t-117.5 39l4 29q115 14 207.5 30.5t112.5 18.5q15 0 18.5 -8t-2.5 -29z" />
    <glyph glyph-name="uacute" unicode="&#xfa;" horiz-adv-x="1106" 
d="M532 1070h-73l303 320q3 7 23 19t51 13q34 -1 51.5 -22.5t17.5 -46.5q-1 -21 -17.5 -38t-39.5 -32zM381 910l-193 -675q-16 -65 1 -98.5t49 -33.5q118 9 297 243.5t260 584.5h159l-204 -750q-2 -34 3 -53.5t38 -19.5q50 5 98 58.5t74 92.5l24 -24q-52 -83 -129.5 -163.5
t-181.5 -87.5q-67 3 -88.5 49.5t-5.5 110.5l86 324q-120 -189 -250.5 -330.5t-274.5 -149.5q-93 5 -115.5 79t1.5 168l127 466q26 89 2.5 129t-117.5 39l4 29q115 14 207.5 30.5t112.5 18.5q15 0 18.5 -8t-2.5 -29z" />
    <glyph glyph-name="ucircumflex" unicode="&#xfb;" horiz-adv-x="1106" 
d="M381 910l-193 -675q-16 -65 1 -98.5t49 -33.5q118 9 297 243.5t260 584.5h159l-204 -750q-2 -34 3 -53.5t38 -19.5q50 5 98 58.5t74 92.5l24 -24q-52 -83 -129.5 -163.5t-181.5 -87.5q-67 3 -88.5 49.5t-5.5 110.5l86 324q-120 -189 -250.5 -330.5t-274.5 -149.5
q-93 5 -115.5 79t1.5 168l127 466q26 89 2.5 129t-117.5 39l4 29q115 14 207.5 30.5t112.5 18.5q15 0 18.5 -8t-2.5 -29zM827 1062l-176 205l-274 -205h-66l307 344h103l160 -344h-54z" />
    <glyph glyph-name="udieresis" unicode="&#xfc;" horiz-adv-x="1106" 
d="M811 1312q52 -2 75 -33t23 -61q1 -30 -18 -63t-76 -36q-57 3 -78 36t-20 63q-1 30 20.5 61t73.5 33zM369 1218q0 38 26 65.5t72 28.5q46 -2 70 -31.5t24 -62.5q1 -33 -18.5 -65t-71.5 -34q-52 2 -77 31t-25 68zM381 910l-193 -675q-16 -65 1 -98.5t49 -33.5
q118 9 297 243.5t260 584.5h159l-204 -750q-2 -34 3 -53.5t38 -19.5q50 5 98 58.5t74 92.5l24 -24q-52 -83 -129.5 -163.5t-181.5 -87.5q-67 3 -88.5 49.5t-5.5 110.5l86 324q-120 -189 -250.5 -330.5t-274.5 -149.5q-93 5 -115.5 79t1.5 168l127 466q26 89 2.5 129
t-117.5 39l4 29q115 14 207.5 30.5t112.5 18.5q15 0 18.5 -8t-2.5 -29z" />
    <glyph glyph-name="yacute" unicode="&#xfd;" horiz-adv-x="819" 
d="M385 1070h-74l303 320q3 7 23 19t51 13q34 -1 52 -22.5t18 -46.5q-1 -21 -18 -38t-40 -32zM623 464q-84 -144 -221 -355.5t-279 -387.5q-69 -85 -126.5 -133.5t-124.5 -50.5q-57 2 -79.5 22.5t-22.5 51.5q1 39 21.5 64.5t59.5 25.5q40 -1 65 -15.5t50 -17.5
q48 5 118.5 97.5t157.5 218.5l-140 701q-15 87 -50.5 133.5t-97.5 46.5q-21 2 -22 19t22 22q98 14 149.5 31t72.5 18q29 -1 39 -24.5t18 -61.5q28 -108 71 -333.5t65 -370.5q125 195 206 336.5t84 204.5q-6 59 -49 81t-49 78q0 38 23.5 63.5t66.5 26.5q52 -1 77.5 -34.5
t25.5 -83.5q-1 -95 -38 -186.5t-93 -186.5z" />
    <glyph glyph-name="thorn" unicode="&#xfe;" 
d="M283 17q189 17 317 231.5t133 424.5q1 81 -33.5 130t-113.5 50q-101 -2 -170.5 -72.5t-115.5 -182.5t-78 -236.5t-54 -233.5q-8 -53 24 -82t91 -29zM156 742l143 549q16 62 -13 79t-114 15q0 1 2 14t2 23q129 12 208 32t103 22q13 5 16 -9t-3 -36l-181 -697
q61 91 156.5 151t196.5 62q128 -4 185 -86.5t56 -191.5q-6 -224 -180 -451.5t-450 -246.5q-41 1 -80.5 10t-67.5 24l-74 -271q-26 -98 4.5 -131.5t147.5 -32.5q-1 0 -8 -12.5t-8 -20.5h-505q1 -5 4.5 13t3.5 20q89 -1 134 35t67 129z" />
    <glyph glyph-name="ydieresis" unicode="&#xff;" horiz-adv-x="819" 
d="M664 1312q51 -2 74.5 -33t23.5 -61q1 -30 -18.5 -63t-75.5 -36q-57 3 -78.5 36t-20.5 63q-1 30 21 61t74 33zM319 1312q47 -2 71 -31.5t24 -62.5q1 -33 -19 -65t-71 -34q-52 2 -77.5 31t-25.5 68q0 38 26 65.5t72 28.5zM623 464q-84 -144 -221 -355.5t-279 -387.5
q-69 -85 -126.5 -133.5t-124.5 -50.5q-57 2 -79.5 22.5t-22.5 51.5q1 39 21.5 64.5t59.5 25.5q40 -1 65 -15.5t50 -17.5q48 5 118.5 97.5t157.5 218.5l-140 701q-15 87 -50.5 133.5t-97.5 46.5q-21 2 -22 19t22 22q98 14 149.5 31t72.5 18q29 -1 39 -24.5t18 -61.5
q28 -108 71 -333.5t65 -370.5q125 195 206 336.5t84 204.5q-6 59 -49 81t-49 78q0 38 23.5 63.5t66.5 26.5q52 -1 77.5 -34.5t25.5 -83.5q-1 -95 -38 -186.5t-93 -186.5z" />
    <glyph glyph-name="dotlessi" unicode="&#x131;" horiz-adv-x="537" 
d="M373 947q12 0 14.5 -8.5t1.5 -24.5q-2 -14 -34.5 -123.5t-75.5 -252t-75 -259t-32 -147.5q1 -16 13.5 -31.5t31.5 -13.5q42 5 92.5 58t83.5 98l29 -29q-49 -72 -135 -153.5t-181 -89.5q-73 2 -89 40t-13 101q0 18 17.5 92t45 170t54 188t43.5 148q27 84 6 118t-117 33
l8 37q165 14 231 30.5t81 18.5z" />
    <glyph glyph-name="OE" unicode="&#x152;" horiz-adv-x="2130" 
d="M66 488q10 366 259 649t621 298q61 -2 158.5 -14.5t136.5 -14.5h844l-57 -303h-33q3 149 -58 195t-221 42h-225q-62 2 -91.5 -25t-51.5 -114l-119 -418h192q144 -1 207 47t96 154h37l-143 -496h-29q12 117 -13.5 173.5t-158.5 56.5h-205l-139 -512q-23 -82 9.5 -111.5
t138.5 -27.5h147q224 0 346 79t211 236h37l-147 -382h-881q-35 -1 -133.5 -13.5t-210.5 -15.5q-221 2 -369.5 133.5t-154.5 383.5zM913 300l213 791q39 149 -11.5 214t-172.5 64q-321 -26 -493.5 -342.5t-174.5 -615.5q7 -220 108.5 -302.5t207.5 -78.5q87 -5 180 49
t143 221z" />
    <glyph glyph-name="oe" unicode="&#x153;" horiz-adv-x="1593" 
d="M770 693q0 105 -46.5 155t-133.5 50q-166 -15 -292.5 -224t-133.5 -435q1 -105 48 -159t128 -54q175 14 299.5 221.5t130.5 445.5zM-9 296q13 272 206 457.5t409 193.5q131 -3 208.5 -59.5t107.5 -132.5q64 71 171 129.5t226 62.5q84 0 131.5 -38t48.5 -109
q-6 -149 -173 -249t-425 -132l-16 -139q0 -89 47 -149.5t137 -63.5q101 3 180 54.5t140 113.5l28 -29q-82 -100 -187.5 -164t-234.5 -67q-105 2 -173 50.5t-93 127.5q-74 -68 -181.5 -123t-240.5 -59q-121 1 -215.5 81.5t-100.5 243.5zM913 468q218 35 322.5 133t103.5 215
q-1 43 -22 62.5t-47 19.5q-95 -3 -200 -121t-157 -309z" />
    <glyph glyph-name="Scaron" unicode="&#x160;" horiz-adv-x="1118" 
d="M1024 1426h37l-62 -405h-32q3 118 -53 231t-209 121q-123 -3 -182.5 -72t-59.5 -165q2 -93 67.5 -173.5t152.5 -162.5t154.5 -182.5t71.5 -231.5q-6 -206 -135 -310t-307 -105q-148 5 -224.5 34t-119.5 33q-22 0 -44 -13.5t-38 -44.5h-33l70 455h33q4 -160 80 -281.5
t243 -127.5q131 4 206 87t77 203q-4 101 -71.5 186t-155 169t-155 180t-69.5 219q3 163 116 262.5t298 102.5q114 -3 170.5 -27t95.5 -27q19 -1 40.5 9t37.5 36zM631 1881l176 -205l274 205h66l-307 -344h-103l-159 344h53z" />
    <glyph glyph-name="scaron" unicode="&#x161;" horiz-adv-x="758" 
d="M270 1406l176 -205l275 205h65l-307 -344h-102l-160 344h53zM594 640q-12 78 -49.5 164.5t-147.5 93.5q-48 -1 -86.5 -34.5t-40.5 -84.5q2 -53 42 -111.5t93.5 -123t94.5 -137t45 -156.5q-3 -125 -92 -201t-228 -79q-76 3 -126.5 19.5t-86.5 18.5q-12 0 -24.5 -6
t-17.5 -19h-32l40 324h30q8 -123 57.5 -205.5t147.5 -85.5q75 2 121 51t47 121q-2 70 -41 131.5t-90 121t-89 127t-38 149.5q5 113 79.5 171t162.5 58q93 -2 142 -19.5t75 -25.5q18 3 33 11t24 26h29l-41 -299h-33z" />
    <glyph glyph-name="Ydieresis" unicode="&#x178;" horiz-adv-x="1253" 
d="M979 1369l8 37h483l-12 -41q-48 0 -109 -46t-141 -138q-43 -47 -107.5 -120t-137 -157t-140 -160.5t-114.5 -132.5q-21 -70 -45.5 -163t-57.5 -218q-39 -123 -13.5 -163t185.5 -37l-8 -30h-623l9 30q97 -2 151 24.5t78 110.5q26 93 61 221t58 217q-21 58 -49.5 135.5
t-60.5 161.5t-58.5 159t-44.5 126q-36 100 -96 140.5t-154 39.5q1 10 4.5 25t3.5 16h610q-1 -2 -6 -17t-6 -20q-121 1 -151.5 -43t8.5 -141q18 -49 40.5 -112.5t48 -130t48.5 -128t39 -108.5q39 47 92 109.5t111.5 129t115 129t99.5 111.5q79 97 37 141t-156 43zM967 1693
q-1 30 20.5 61t73.5 33q51 -2 74.5 -33t23.5 -61q1 -30 -18 -63t-76 -36q-57 3 -78 36t-20 63zM717 1787q46 -2 70 -31.5t24 -62.5q1 -33 -18.5 -65t-71.5 -34q-52 2 -77.5 31.5t-25.5 67.5t26 65.5t73 28.5z" />
    <glyph glyph-name="florin" unicode="&#x192;" 
d="M602 841h258l-8 -62h-254l-86 -663q-41 -281 -132 -429t-224 -150q-85 3 -120.5 48t-35.5 108q0 41 20 62t54 20q35 0 57.5 -20.5t20.5 -53.5q-2 -26 -12.5 -44.5t-12.5 -37.5q0 -11 9.5 -19.5t31.5 -9.5q53 2 85 42t49 115t29.5 175t28.5 218l74 639h-213l8 62h217
q14 188 91 390.5t278 219.5q83 -1 123.5 -39.5t40.5 -95.5q0 -47 -21 -70.5t-69 -23.5q-39 0 -56.5 19.5t-17.5 53.5q2 30 16.5 45t16.5 29q1 16 -8 24.5t-33 8.5q-64 -2 -101.5 -62.5t-59 -151.5t-31 -185.5t-13.5 -161.5z" />
    <glyph glyph-name="circumflex" unicode="&#x2c6;" 
d="M602 1267l-274 -205h-66l307 344h103l159 -344h-53z" />
    <glyph glyph-name="caron" unicode="&#x2c7;" 
d="M221 1439h58l233 -213l229 213h58l-230 -344h-118z" />
    <glyph glyph-name="breve" unicode="&#x2d8;" 
d="M262 1402q29 -92 94.5 -117t147.5 -22q81 -3 146.5 22t94.5 117h46q-12 -110 -82.5 -186.5t-204.5 -79.5q-135 3 -205 79.5t-82 186.5h45z" />
    <glyph glyph-name="dotaccent" unicode="&#x2d9;" 
d="M512 1140q-44 1 -74.5 31.5t-31.5 74.5q1 45 31.5 75.5t74.5 31.5q44 -1 74.5 -31.5t31.5 -75.5q-1 -44 -31.5 -74.5t-74.5 -31.5z" />
    <glyph glyph-name="tilde" unicode="&#x2dc;" 
d="M881 1336q-10 -79 -54.5 -136t-121.5 -60q-59 4 -132.5 30.5t-126.5 30.5q-44 0 -62.5 -18.5t-35.5 -55.5h-45q13 92 56.5 136.5t111.5 44.5q67 -3 133 -27t133 -27q51 2 71 27.5t28 54.5h45z" />
    <glyph glyph-name="pi" unicode="&#x3c0;" horiz-adv-x="1384" 
d="M37 488q30 186 110 285t254 100h959l-41 -192h-340q-27 -180 -33 -315.5t-11 -227.5t-28.5 -137.5t-83.5 -45.5q-45 2 -65.5 30.5t-20.5 72.5q0 54 19.5 113t50.5 131t62.5 165t56.5 214h-389q-29 -176 -35 -310t-11.5 -227.5t-29 -140t-84.5 -48.5q-43 2 -62.5 29
t-19.5 74q0 52 17.5 107t46 125.5t61.5 165t63 225.5h-200q-85 1 -129 -45.5t-64 -147.5h-53z" />
    <glyph glyph-name="endash" unicode="&#x2013;" 
d="M954 538l-32 -111h-984l36 111h980z" />
    <glyph glyph-name="emdash" unicode="&#x2014;" horiz-adv-x="2040" 
d="M2007 538l-29 -111h-2040l36 111h1072h961z" />
    <glyph glyph-name="quoteleft" unicode="&#x2018;" horiz-adv-x="512" 
d="M549 1394q-75 -39 -140 -104t-69 -126q7 -30 57.5 -57.5t57.5 -97.5q0 -36 -27 -68.5t-80 -34.5q-59 1 -91 43.5t-32 116.5q3 115 89 210.5t218 158.5z" />
    <glyph glyph-name="quoteright" unicode="&#x2019;" horiz-adv-x="512" 
d="M213 906l-16 41q88 48 145 110t59 116q-7 43 -53 63.5t-53 91.5q0 39 26.5 72t75.5 35q67 -2 95.5 -48t27.5 -112q-3 -117 -89 -209t-218 -160z" />
    <glyph glyph-name="quotesinglbase" unicode="&#x201a;" horiz-adv-x="508" 
d="M119 95q0 45 29.5 77.5t93.5 33.5q60 1 108 -42t51 -138q1 -102 -65 -191.5t-209 -170.5l-25 29q89 59 154 126.5t68 143.5q0 25 -10 32t-31 6q-13 0 -27.5 -0.5t-30.5 -0.5q-47 0 -76 22t-30 73z" />
    <glyph glyph-name="quotedblleft" unicode="&#x201c;" horiz-adv-x="905" 
d="M225 1066q3 115 89 210.5t218 158.5l17 -41q-75 -39 -140 -104t-69 -126q7 -30 57.5 -57.5t57.5 -97.5q0 -36 -27 -68.5t-80 -34.5q-59 1 -91 43.5t-32 116.5zM623 1066q3 117 89 209.5t218 159.5l16 -41q-88 -48 -145.5 -110t-59.5 -116q7 -43 53.5 -63.5t53.5 -91.5
q0 -39 -26.5 -72t-76.5 -35q-67 2 -95 48t-27 112z" />
    <glyph glyph-name="quotedblright" unicode="&#x201d;" horiz-adv-x="905" 
d="M397 1435q67 -2 95.5 -48t27.5 -112q-3 -117 -89 -209t-218 -160l-16 41q88 48 145 110t59 116q-7 43 -53 63.5t-53 91.5q0 39 26.5 72t75.5 35zM594 947q75 39 140 104t69 126q-7 30 -57.5 57.5t-57.5 97.5q0 36 27 68.5t80 34.5q58 -1 90.5 -43.5t32.5 -116.5
q-3 -115 -89.5 -210.5t-218.5 -158.5z" />
    <glyph glyph-name="quotedblbase" unicode="&#x201e;" horiz-adv-x="905" 
d="M70 218q67 -2 95.5 -48t27.5 -112q-3 -113 -89 -204.5t-216 -160.5l-16 41q89 49 144.5 110.5t57.5 114.5q-6 41 -51.5 61.5t-52.5 91.5q1 39 25.5 71.5t74.5 34.5zM475 -37q-7 29 -57.5 55.5t-57.5 97.5q0 36 27 68t80 34q59 -1 91 -43t32 -117q-3 -111 -89 -206
t-218 -159l-17 41q75 40 140 104.5t69 124.5z" />
    <glyph glyph-name="dagger" unicode="&#x2020;" 
d="M573 1340q2 55 34 75.5t65 19.5q46 0 72 -20.5t26 -65.5q-5 -73 -61 -130.5t-107 -222.5q120 2 176 35.5t115 38.5q43 0 68 -26t26 -72q-1 -40 -23 -64.5t-59 -25.5q-62 5 -133 36.5t-182 36.5q-27 -224 -13.5 -278t17.5 -82q-2 -12 -23.5 -47t-63.5 -120t-102.5 -249
t-138.5 -433h-45q0 18 20.5 99t48 203.5t48 264t22.5 282.5q5 11 67 77.5t122 282.5q-84 -5 -146.5 -38.5t-128.5 -38.5q-41 -1 -69 23t-29 79q-1 27 17.5 57t72.5 33q67 -5 130 -37t169 -37q33 176 22.5 219.5t-14.5 124.5z" />
    <glyph glyph-name="daggerdbl" unicode="&#x2021;" 
d="M565 1340q2 55 31.5 75.5t62.5 19.5q47 0 74.5 -20.5t28.5 -65.5q-5 -73 -63 -130.5t-109 -222.5q120 2 176 35.5t115 38.5q43 0 68 -26t26 -72q-1 -41 -23 -67t-59 -27q-60 5 -125 36.5t-190 36.5q-27 -224 -13.5 -276t17.5 -80q-5 -13 -67 -83t-122 -269q84 5 147 41
t128 41q41 0 72.5 -26t33.5 -81q1 -27 -19.5 -55.5t-74.5 -30.5q-66 5 -127.5 37t-167.5 37q-33 -175 -22.5 -222.5t14.5 -130.5q-3 -53 -40 -70t-71 -16q-41 1 -67 19.5t-27 57.5q5 75 63 136.5t109 225.5q-121 -2 -178.5 -35.5t-116.5 -38.5q-35 0 -60 22t-27 68
q2 41 25 69.5t58 29.5q60 -5 123.5 -37t187.5 -37q29 231 13 276.5t-21 71.5q5 11 67 77.5t122 282.5q-84 -5 -147 -38.5t-128 -38.5q-41 -1 -69 23t-29 79q-1 27 17.5 57t72.5 33q67 -5 130 -37t169 -37q33 176 24.5 219.5t-12.5 124.5z" />
    <glyph glyph-name="bullet" unicode="&#x2022;" horiz-adv-x="1204" 
d="M598 1046q134 -5 213.5 -92.5t81.5 -202.5q-2 -115 -81.5 -201t-213.5 -90q-131 4 -210 90t-81 201q2 115 81 202.5t210 92.5z" />
    <glyph glyph-name="ellipsis" unicode="&#x2026;" horiz-adv-x="2032" 
d="M61 99q1 46 31.5 81.5t83.5 37.5q59 -2 89 -36.5t30 -82.5q-1 -47 -34 -78t-81 -33q-53 2 -85.5 31.5t-33.5 79.5zM737 99q1 46 31.5 81.5t83.5 37.5q59 -2 89 -36.5t30 -82.5q-1 -47 -34 -78t-81 -33q-53 2 -85.5 31.5t-33.5 79.5zM1417 99q1 46 31.5 81.5t83.5 37.5
q59 -2 89 -36.5t30 -82.5q-1 -47 -34.5 -78t-80.5 -33q-53 2 -85.5 31.5t-33.5 79.5z" />
    <glyph glyph-name="perthousand" unicode="&#x2030;" horiz-adv-x="2769" 
d="M618 1435q74 0 116 -23.5t77 -53.5t86 -53.5t143 -25.5q122 3 227 61.5t163 135.5h81l-1011 -1537h-86l921 1385q-63 -40 -134.5 -64.5t-168.5 -25.5q-49 0 -94 10t-82 23l4 -94q-2 -138 -122 -326.5t-337 -206.5q-123 3 -188 77t-66 181q7 173 146.5 348t324.5 189z
M1303 -25q-118 5 -181.5 85t-64.5 191q7 173 146 346t333 186q128 -2 183.5 -73t54.5 -181q-5 -174 -137.5 -356t-333.5 -198zM1556 722q-122 -22 -238.5 -223t-125.5 -318q0 -60 33 -99t106 -40q145 10 261.5 164.5t123.5 331.5q0 78 -38.5 130t-121.5 54zM639 1365
q-122 -23 -235 -222.5t-121 -301.5q0 -71 36 -107.5t115 -36.5q139 14 252.5 173t120.5 290q1 39 -1.5 68.5t-14.5 62.5q-49 18 -84 44.5t-68 29.5zM2408 722q-122 -22 -238.5 -223t-125.5 -318q0 -60 33 -99t106 -40q145 10 261.5 164.5t123.5 331.5q0 78 -38.5 130
t-121.5 54zM2388 783q128 -2 183.5 -73t54.5 -181q-5 -174 -137.5 -356t-334.5 -198q-117 5 -180.5 85t-64.5 191q7 173 146 346t333 186z" />
    <glyph glyph-name="guilsinglleft" unicode="&#x2039;" horiz-adv-x="504" 
d="M303 95q-23 5 -51 49.5t-47 73.5q-36 42 -86.5 110.5t-89.5 106.5q-18 16 -12.5 32.5t24.5 29.5q48 37 110.5 89.5t110.5 86.5q68 59 117 108t80 52q51 -13 -73 -147t-226 -230q38 -61 113 -202.5t30 -158.5z" />
    <glyph glyph-name="guilsinglright" unicode="&#x203a;" horiz-adv-x="504" 
d="M172 710q36 -41 86.5 -109.5t89.5 -107.5q18 -16 12.5 -32.5t-24.5 -29.5q-49 -37 -111 -89.5t-110 -86.5q-67 -59 -114.5 -108t-79.5 -52q-53 13 70 147t226 230q-38 60 -112 204t-31 161q22 -5 50 -51.5t48 -75.5z" />
    <glyph glyph-name="trademark" unicode="&#x2122;" horiz-adv-x="1675" 
d="M238 1250l12 181h438l12 -181h-24q2 29 -22 87t-93 65h-41v-422q-2 -20 9.5 -38t64.5 -19v-25h-250v25q53 1 64.5 19t9.5 38v422h-41q-69 -7 -93 -65t-22 -87h-24zM778 1406v25h185l139 -398l143 398h176v-25q-34 0 -51.5 -11t-17.5 -38v-381q1 -33 22.5 -43.5t46.5 -9.5
l-4 -25h-229v25q29 -1 51 8.5t23 44.5v397l-177 -479h-16l-176 479v-397q1 -35 22.5 -44.5t55.5 -8.5v-25h-193v25q37 -1 55.5 8.5t18.5 44.5v381q-1 30 -23 40t-51 9z" />
    <glyph glyph-name="Omega" unicode="&#x2126;" horiz-adv-x="1565" 
d="M152 878q8 277 189 441.5t441 168.5q260 -4 441.5 -168.5t189.5 -441.5q8 -102 -44.5 -255.5t-262.5 -396.5v-28h311l62 184h57l-115 -382h-503q166 295 208.5 532.5t36.5 345.5q0 36 -7 121t-42 182.5t-112.5 166t-219.5 70.5q-143 -2 -222 -70.5t-112.5 -166
t-41 -182.5t-5.5 -121q-6 -108 37 -345.5t209 -532.5h-504l-114 382h57l61 -184h312v28q-210 243 -262.5 396.5t-44.5 255.5z" />
    <glyph glyph-name="partialdiff" unicode="&#x2202;" 
d="M414 1078q-34 0 -54 15.5t-20 46.5q2 60 58 102.5t147 44.5q150 -1 247.5 -138t100.5 -402q-3 -317 -126 -539t-329 -233q-137 4 -219 102t-84 260q3 194 103.5 310.5t257.5 119.5q88 1 144.5 -42t92.5 -146q16 59 22.5 138.5t6.5 164.5q0 169 -33 254.5t-98 85.5
q-53 -9 -101 -72t-116 -72zM524 710q-101 -1 -171.5 -117.5t-73.5 -341.5q3 -136 55 -188t117 -50q123 6 186 137.5t63 321.5q-1 109 -48 173t-128 65z" />
    <glyph glyph-name="Delta" unicode="&#x2206;" horiz-adv-x="1425" 
d="M733 1431l651 -1431h-1335l651 1431h33zM647 1099l-450 -1008h905z" />
    <glyph glyph-name="product" unicode="&#x220f;" horiz-adv-x="1700" 
d="M66 1549h1564v-82h-180v-1868h180v-82h-536v82h168v1868h-828v-1868h168v-82h-536v82h180v1868h-180v82z" />
    <glyph glyph-name="Sigma" unicode="&#x2211;" horiz-adv-x="1348" 
d="M25 1463h868q29 0 49 7.5t21 25.5l-21 90h78l123 -393h-74q-54 125 -83.5 165t-117.5 36h-536l598 -635v-29q-119 -106 -292 -256t-298 -256h704q60 -3 80.5 35.5t59.5 161.5h73l-163 -554h-78q10 25 21 61t12 53q0 16 -9.5 20.5t-27.5 4.5h-987v38l712 618l-712 754v53z
" />
    <glyph glyph-name="minus" unicode="&#x2212;" horiz-adv-x="1700" 
d="M1442 534h-1188v135h1188v-135z" />
    <glyph glyph-name="fraction" unicode="&#x2215;" horiz-adv-x="340" 
d="M676 1435l-923 -1460h-90l923 1460h90z" />
    <glyph glyph-name="smallbullet" unicode="&#x2219;" horiz-adv-x="508" 
d="M254 828q47 -1 80.5 -34t34.5 -80q-1 -48 -34.5 -81t-80.5 -34q-47 1 -80.5 34t-34.5 81q1 47 34.5 80t80.5 34z" />
    <glyph glyph-name="radical" unicode="&#x221a;" horiz-adv-x="1298" 
d="M340 964l254 -713l516 1397h184v-90h-114l-590 -1599h-62l-319 874l-123 -41l-25 77z" />
    <glyph glyph-name="infinity" unicode="&#x221e;" horiz-adv-x="1700" 
d="M520 988q138 -9 214 -103.5t106 -162.5q38 95 119.5 179.5t195.5 90.5q133 -2 226.5 -106t97.5 -287q0 -147 -75.5 -261t-219.5 -120q-134 8 -211 97.5t-113 164.5q-42 -95 -118 -178t-201 -88q-125 3 -220 110.5t-100 282.5q-1 137 72.5 255t226.5 126zM295 595
q1 -103 55 -169.5t150 -68.5q102 3 169.5 84.5t121.5 210.5q-35 79 -100.5 129t-158.5 52q-103 -1 -169 -65t-68 -173zM1200 845q-122 -9 -190.5 -110.5t-100.5 -184.5q38 -68 97 -122.5t170 -57.5q100 1 163.5 64t65.5 177q-1 107 -55 170t-150 64z" />
    <glyph glyph-name="integral" unicode="&#x222b;" 
d="M717 1435q-81 -14 -103.5 -269.5t-19.5 -582.5q2 -425 -86 -684.5t-295 -267.5q-81 2 -124.5 40t-43.5 100q0 47 26 71t72 23q80 -7 88.5 -64.5t63.5 -66.5q83 11 104.5 253.5t18.5 599.5q-2 411 86 676t295 274q80 -1 123.5 -38.5t44.5 -100.5q0 -46 -26 -68t-73 -22
q-79 8 -87.5 63.5t-63.5 63.5z" />
    <glyph glyph-name="approxequal" unicode="&#x2248;" horiz-adv-x="1700" 
d="M565 923q84 0 162 -19.5t147.5 -46.5t134 -47t126.5 -23q89 1 187.5 41.5t197.5 114.5v-151q-68 -49 -166 -93t-215 -47q-76 2 -147.5 22.5t-140.5 47.5t-137.5 46t-140.5 19q-108 -2 -209 -46.5t-188 -108.5v151q95 65 190 102t199 38zM176 419q95 65 190 101.5
t199 37.5q84 0 162 -19.5t147.5 -46t134 -47t126.5 -22.5q89 0 187.5 40.5t197.5 115.5v-152q-68 -49 -166 -92.5t-215 -46.5q-76 2 -147.5 22.5t-140.5 47t-137.5 46t-140.5 19.5q-108 -2 -209 -47t-188 -109v152z" />
    <glyph glyph-name="notequal" unicode="&#x2260;" horiz-adv-x="1700" 
d="M823 472h619v-131h-705l-245 -315l-107 82l188 233h-319v131h401l209 262h-610v131h700l246 316l98 -78l-180 -238h324v-131h-414z" />
    <glyph glyph-name="lessequal" unicode="&#x2264;" horiz-adv-x="1704" 
d="M1438 1193v-143l-938 -308l938 -307v-143l-1176 393v115zM262 153h1176v-136h-1176v136z" />
    <glyph glyph-name="greaterequal" unicode="&#x2265;" horiz-adv-x="1700" 
d="M1438 153v-136h-1176v136h1176zM262 1193l1176 -393v-115l-1176 -393v143l938 307l-938 308v143z" />
    <glyph glyph-name="lozenge" unicode="&#x25ca;" horiz-adv-x="2040" 
d="M434 673l578 737l590 -733l-590 -734zM1016 1230l-438 -553l438 -553l446 553z" />
  </font>
</defs>
</svg>
